<svg width="30" height="30" viewBox="0 0 30 30" fill="none" xmlns="http://www.w3.org/2000/svg">
<path fill-rule="evenodd" clip-rule="evenodd" d="M15 0C6.72679 0 0 6.7262 0 14.9973C0 23.2684 6.72589 30 15 30C23.2741 30 30 23.264 30 14.9973C30 6.73067 23.2661 0 15 0ZM15 2.50045C17.4725 2.50045 19.8895 3.23383 21.9452 4.60783C24.0009 5.98183 25.6031 7.93472 26.549 10.2195C27.4949 12.5043 27.7422 15.0184 27.2594 17.4437C26.7767 19.8691 25.5856 22.0967 23.8369 23.845C22.0882 25.5932 19.8605 26.7835 17.4353 27.2653C15.0102 27.7471 12.4967 27.4988 10.2127 26.5517C7.92876 25.6046 5.9769 24.0013 4.60402 21.9446C3.23115 19.888 2.49894 17.4703 2.5 14.9973C2.49788 13.3552 2.8198 11.7287 3.4473 10.2112C4.0748 8.69374 4.99555 7.31501 6.15677 6.15408C7.31799 4.99315 8.69687 4.07282 10.2144 3.44586C11.7319 2.8189 13.3581 2.49763 15 2.50045V2.50045ZM15.1786 4.3222C14.9425 4.32126 14.7085 4.3669 14.4901 4.45651C14.2716 4.54611 14.073 4.67793 13.9056 4.8444C13.7381 5.01088 13.6052 5.20875 13.5143 5.42668C13.4234 5.64462 13.3764 5.87835 13.3759 6.11448V17.0566C13.3638 17.2998 13.4012 17.5429 13.4859 17.7712C13.5706 17.9995 13.7008 18.2082 13.8686 18.3846C14.0364 18.561 14.2383 18.7015 14.462 18.7974C14.6857 18.8934 14.9266 18.9429 15.1701 18.9429C15.4135 18.9429 15.6544 18.8934 15.8782 18.7974C16.1019 18.7015 16.3038 18.561 16.4716 18.3846C16.6394 18.2082 16.7696 17.9995 16.8543 17.7712C16.939 17.5429 16.9764 17.2998 16.9643 17.0566V6.11538C16.9634 5.64132 16.7751 5.18684 16.4407 4.85096C16.1062 4.51508 15.6525 4.32503 15.1786 4.3222ZM15.1786 20.8153C14.6175 20.8137 14.0732 21.0067 13.6384 21.3614C13.2037 21.7162 12.9054 22.2108 12.7944 22.7609C12.6833 23.311 12.7665 23.8826 13.0297 24.3783C13.2928 24.8739 13.7197 25.263 14.2375 25.4791C14.7553 25.6952 15.332 25.7251 15.8694 25.5635C16.4067 25.402 16.8715 25.0591 17.1844 24.5933C17.4973 24.1274 17.639 23.5675 17.5853 23.0089C17.5317 22.4502 17.286 21.9275 16.8902 21.5297C16.6658 21.3041 16.3991 21.1248 16.1054 21.0023C15.8117 20.8797 15.4968 20.8162 15.1786 20.8153Z" fill="#000000"/>
</svg>
