<svg width="52" height="30" viewBox="0 0 52 30" fill="none" xmlns="http://www.w3.org/2000/svg">
<g id="Vector">
<path d="M50.76 2.48527H49.0891V1.22704C49.0891 0.551126 48.5322 0 47.8491 0C47.166 0 46.6091 0.551126 46.6091 1.22704V2.48527H18.4985C17.5212 2.48527 16.6175 3.0156 16.1446 3.85789L15.0306 5.85442H14.9151C14.1794 5.84402 13.4649 5.56326 12.9499 5.03293C12.4771 4.54419 11.6889 4.5234 11.195 4.99133C10.7011 5.45927 10.6801 6.23917 11.153 6.7279C11.8045 7.41421 12.6452 7.89255 13.5489 8.13172C12.5506 9.15078 11.174 9.7435 9.70277 9.7435C9.33497 9.7435 8.97768 9.83709 8.66242 10.0035C8.65191 10.0139 8.6414 10.0243 8.63089 10.0243C8.56784 10.0659 8.50479 10.0971 8.45225 10.1386C8.16851 10.3362 7.93732 10.5962 7.76919 10.9081L0.381621 25.1126C-0.164828 26.1629 -0.122793 27.3899 0.497216 28.3882C1.11722 29.3969 2.19961 30 3.38709 30H8.93564C10.533 30 11.9306 28.9913 12.414 27.4835L15.4405 19.2374C15.4405 19.227 15.451 19.227 15.451 19.2166C15.8818 19.9445 16.4808 20.5789 17.2059 21.026C18.1622 21.6083 19.2341 21.9099 20.3585 21.9099C20.5162 21.9099 20.6633 21.8995 20.8209 21.8891C23.8999 21.6603 26.3064 19.0399 26.3484 15.9099H27.3257C30.058 15.9099 32.2753 13.7158 32.2753 11.0121V10.6898H50.76C51.443 10.6898 52 10.1386 52 9.46274V3.7123C52 3.0364 51.443 2.48527 50.76 2.48527ZM13.076 18.4887L10.0496 26.7348C9.89193 27.2132 9.45057 27.5355 8.93564 27.5355H3.38709C2.93522 27.5355 2.70403 27.234 2.61996 27.1092C2.5464 26.9844 2.37826 26.6412 2.58843 26.2461L9.82888 12.3224C10.9008 12.3224 11.8781 12.5511 12.5716 12.9775C13.6015 13.6118 14.3056 14.6828 14.5473 15.9203C13.8957 16.6482 13.3808 17.5217 13.076 18.4887ZM20.6423 19.435C19.8961 19.487 19.1605 19.3102 18.53 18.9255C17.8154 18.4887 17.332 17.7088 17.1954 16.8354C17.5527 16.5754 17.9415 16.3674 18.3514 16.2218C18.5615 17.2721 19.1605 18.2288 20.0433 18.8631C20.2639 19.0191 20.5162 19.1023 20.7789 19.1023C21.1677 19.1023 21.546 18.9255 21.7877 18.5927C22.1975 18.0416 22.0714 17.2721 21.5145 16.8769C21.1887 16.6378 20.9575 16.305 20.8419 15.9203H23.8789C23.8159 17.7608 22.4182 19.2998 20.6423 19.435ZM29.7848 11.0121C29.7848 12.3536 28.6814 13.4454 27.3257 13.4454H19.9487C18.7822 13.4454 17.6578 13.7366 16.6595 14.2565C16.1341 12.8839 15.1988 11.7088 13.9693 10.9289C15.0306 10.2426 15.9239 9.31716 16.5649 8.19411L18.3304 5.04333C18.3619 4.98094 18.4354 4.93934 18.4985 4.93934H29.7848V11.0121ZM49.52 8.2253H32.2753V4.94974H49.52V8.2253Z" fill="black"/>
<path d="M26.2854 6.13518H20.4846C19.8016 6.13518 19.2446 6.68631 19.2446 7.36222C19.2446 8.03813 19.8016 8.58925 20.4846 8.58925H26.2854C26.9684 8.58925 27.5254 8.03813 27.5254 7.36222C27.5254 6.68631 26.9684 6.13518 26.2854 6.13518Z" fill="black"/>
<path d="M26.2854 9.79549H20.4846C19.8016 9.79549 19.2446 10.3466 19.2446 11.0225C19.2446 11.6984 19.8016 12.2496 20.4846 12.2496H26.2854C26.9684 12.2496 27.5254 11.6984 27.5254 11.0225C27.5254 10.3466 26.9684 9.79549 26.2854 9.79549Z" fill="black"/>
</g>
</svg>
