<svg width="62" height="60" viewBox="0 0 62 60" fill="none" xmlns="http://www.w3.org/2000/svg">
<path d="M26.8739 33.4486H37.9007C38.9964 33.4453 40.0463 33.0038 40.821 32.2204C41.5958 31.437 42.0325 30.3754 42.0357 29.2675V27.8738C42.0327 26.0944 41.5498 24.3496 40.639 22.827C39.7283 21.3045 38.4241 20.0619 36.8669 19.2329C38.3831 17.9786 39.2803 16.0275 39.2803 13.9369C39.2803 12.0888 38.5542 10.3163 37.2617 9.00947C35.9693 7.70263 34.2164 6.96846 32.3885 6.96846C30.5608 6.96846 28.8078 7.70263 27.5154 9.00947C26.2229 10.3163 25.4968 12.0888 25.4968 13.9369C25.5028 14.9424 25.7211 15.9351 26.1371 16.8484C26.5531 17.7617 27.1571 18.5747 27.9089 19.2329C26.3424 20.0504 25.0303 21.2904 24.118 22.8155C23.2057 24.3407 22.7288 26.0914 22.7401 27.8738V29.2675C22.7427 30.3754 23.1791 31.4371 23.9537 32.2206C24.7283 33.0041 25.7783 33.4456 26.8739 33.4486ZM32.3873 9.75086C33.2052 9.75086 34.0046 9.99608 34.6846 10.4555C35.3646 10.9149 35.8946 11.5679 36.2076 12.3319C36.5206 13.0959 36.6025 13.9366 36.4429 14.7476C36.2834 15.5587 35.8895 16.3037 35.3112 16.8884C34.7329 17.4731 33.9961 17.8713 33.194 18.0327C32.3919 18.194 31.5605 18.1112 30.8049 17.7947C30.0493 17.4783 29.4035 16.9424 28.9492 16.2548C28.4948 15.5672 28.2523 14.7589 28.2523 13.9319C28.2555 12.8241 28.6922 11.7625 29.467 10.9791C30.2418 10.1957 31.2916 9.75415 32.3873 9.75086ZM25.4956 27.8689C25.4956 26.0207 26.2217 24.2482 27.5141 22.9414C28.8066 21.6346 30.5595 20.9004 32.3873 20.9004C34.2151 20.9004 35.9681 21.6346 37.2605 22.9414C38.553 24.2482 39.279 26.0207 39.279 27.8689V29.2625C39.2781 29.6319 39.1325 29.9858 38.8743 30.2469C38.616 30.5081 38.266 30.6553 37.9007 30.6562H26.8739C26.5087 30.6553 26.1587 30.5081 25.9004 30.2469C25.6421 29.9858 25.4966 29.6319 25.4956 29.2625V27.8689Z" fill="#FFFFFF"/>
<path d="M61.5394 35.5391L61.4064 35.3998C60.3945 34.503 59.185 33.8643 57.8789 33.537C56.5729 33.2097 55.2084 33.2033 53.8994 33.5183C55.1718 30.5243 55.8284 27.2999 55.8291 24.0412C55.8291 10.8011 45.3536 0 32.3972 0C19.4408 0 8.96534 10.8011 8.96534 24.0412C8.97324 28.1322 9.9919 32.1564 11.9288 35.7482H11.7122L3.44211 37.1419C2.33451 37.3509 1.3746 37.9084 0.754341 38.8143C0.439328 39.2646 0.216148 39.7737 0.0978229 40.3121C-0.0205021 40.8505 -0.0316032 41.4073 0.0651681 41.9501L2.40343 56.3748C2.48417 56.9193 2.67275 57.4418 2.95786 57.9109C3.24298 58.38 3.61877 58.7861 4.06275 59.1049C4.50673 59.4237 5.00976 59.6486 5.54173 59.7662C6.0737 59.8838 6.62367 59.8917 7.15872 59.7894L17.4963 58.0473H18.0476L25.6975 59.859C26.0124 59.9444 26.3363 59.9912 26.6623 59.9984C26.8941 60.0066 27.1259 59.9831 27.3515 59.9287L43.0695 57.2857C44.0203 57.1494 44.8837 56.6508 45.4829 55.892L61.6784 37.3509C62.1596 36.9328 62.0907 36.0269 61.5394 35.5391ZM11.7122 24.0412C11.7122 12.3342 21.016 2.78738 32.3874 2.78738C43.7587 2.78738 53.0625 12.3342 53.0625 24.0412C53.0632 29.3083 51.1502 34.3921 47.687 38.3265L46.9978 39.093C46.1215 39.9826 45.1749 40.7983 44.1673 41.532C42.5133 38.6053 39.1363 36.8631 35.6905 37.4903L24.8705 39.3021C24.5948 39.3718 24.3868 39.3021 24.1124 39.2324L17.5652 36.5147C16.7945 36.1776 15.9837 35.9433 15.1531 35.8179C12.893 32.3162 11.6952 28.2226 11.7073 24.0412H11.7122ZM43.3403 54.2146C43.1375 54.4794 42.841 54.6542 42.5133 54.7024L26.874 57.2857H26.3226L18.6728 55.4689C18.3568 55.3891 18.0335 55.3424 17.708 55.3296C17.4762 55.3214 17.2444 55.3449 17.0188 55.3992L6.68122 57.1414C5.92313 57.2807 5.23396 56.7232 5.09613 55.9567L2.75786 41.532C2.71688 41.3482 2.72054 41.1571 2.76855 40.9751C2.81656 40.7931 2.90748 40.6255 3.03353 40.4867C3.2581 40.2002 3.5753 40.0029 3.92946 39.9293L12.1995 38.5356C13.6642 38.3134 15.1609 38.482 16.5413 39.0246L23.0885 41.7423C23.7927 42.0052 24.5474 42.1001 25.2938 42.0198L36.1138 40.2092C37.3219 40.0036 38.5633 40.2147 39.6383 40.8088C40.7133 41.4029 41.5595 42.3453 42.0407 43.4844L31.9788 45.1569C31.8006 45.1855 31.6299 45.2502 31.4769 45.3471C31.324 45.4439 31.1918 45.5709 31.0885 45.7205C30.9851 45.8701 30.9126 46.0392 30.8753 46.2177C30.8379 46.3962 30.8365 46.5805 30.8712 46.7596C30.9385 47.1229 31.1394 47.447 31.4335 47.6665C31.7276 47.8861 32.0931 47.9849 32.4563 47.943L44.0344 45.9918C44.1809 45.9779 44.3224 45.9303 44.4479 45.8525C44.6022 45.758 44.7416 45.6405 44.8614 45.504L51.9599 37.8387C52.7881 36.9181 53.9033 36.3123 55.1197 36.1221C56.3361 35.9319 57.5802 36.1688 58.6448 36.7935L43.3403 54.2146Z" fill="#FFFFFF"/>
</svg>
