<svg width="50" height="59" viewBox="0 0 50 59" fill="none" xmlns="http://www.w3.org/2000/svg">
<path d="M49.8751 12.6828C49.8645 12.0662 49.6768 11.4657 49.3343 10.9533C48.9919 10.4409 48.5093 10.0385 47.9444 9.79413L26.2932 0.275284C25.8854 0.093778 25.4441 0 24.9979 0C24.5516 0 24.1103 0.093778 23.7025 0.275284L2.04054 9.79845C1.47306 10.0436 0.988707 10.4485 0.646205 10.9641C0.303703 11.4798 0.11776 12.0839 0.110918 12.7033C-0.124901 25.9323 0.00969869 32.1998 0.568556 34.3372C1.95511 39.369 4.59908 43.963 8.25043 47.6849C12.0192 51.666 17.1157 55.3492 23.387 58.6298C23.8462 58.8733 24.3578 59.0005 24.8773 59.0005C25.3967 59.0005 25.9083 58.8733 26.3675 58.6298C33.0868 55.129 38.4277 51.2256 42.2546 47.0318C46.1688 42.7333 48.6077 38.0117 49.4907 32.9986C50.1368 29.3349 50.0474 20.6764 49.8729 12.6882L49.8751 12.6828ZM45.8694 32.3477C44.3285 41.0429 37.2766 48.746 24.8783 55.2521C13.3017 49.1552 6.32081 41.8072 4.12737 33.4034C3.48129 30.9379 3.69665 17.8114 3.78495 13.0596L25.0011 3.73178L46.2011 13.052C46.3572 20.346 46.4552 29.0283 45.8694 32.3477Z" fill="#FFFFFF"/>
</svg>
