<svg width="36" height="24" viewBox="0 0 36 24" fill="none" xmlns="http://www.w3.org/2000/svg">
<path d="M32.9883 8.4H24.8043V3.01234C24.8011 2.21241 24.4811 1.44634 23.9143 0.881784C23.3476 0.317231 22.5803 0.000174692 21.7803 0H14.2203C13.4204 0.000174692 12.6531 0.317231 12.0864 0.881784C11.5196 1.44634 11.1996 2.21241 11.1963 3.01234V13.2H3.01234C2.21448 13.2031 1.45017 13.5213 0.885928 14.0854C0.321687 14.6496 0.00325069 15.4138 0 16.2117V21.24C0 21.972 0.290785 22.674 0.808386 23.1916C1.32599 23.7092 2.028 24 2.76 24H33.24C33.972 24 34.674 23.7092 35.1916 23.1916C35.7092 22.674 36 21.972 36 21.24V11.4123C35.9968 10.6145 35.6784 9.85033 35.1144 9.28613C34.5503 8.72192 33.7861 8.40343 32.9883 8.4V8.4ZM11.1963 21.6H2.79634C2.70184 21.5969 2.61206 21.558 2.5452 21.4911C2.47835 21.4243 2.43943 21.3345 2.43634 21.24V16.2123C2.43607 16.056 2.49557 15.9056 2.60266 15.7917C2.70975 15.6779 2.85632 15.6093 3.01234 15.6H11.1963V21.6ZM22.4043 21.6H13.5963V3.01234C13.5963 2.93094 13.6125 2.85035 13.644 2.77529C13.6755 2.70022 13.7217 2.63219 13.7798 2.57518C13.8379 2.51816 13.9068 2.4733 13.9824 2.44322C14.0581 2.41314 14.139 2.39845 14.2203 2.4H21.7803C21.8618 2.39826 21.9427 2.41283 22.0185 2.44284C22.0942 2.47285 22.1632 2.5177 22.2213 2.57476C22.2794 2.63181 22.3256 2.69991 22.357 2.77506C22.3885 2.85021 22.4045 2.93088 22.4043 3.01234V21.6ZM33.6007 21.24C33.5976 21.3345 33.5587 21.4243 33.4918 21.4911C33.425 21.558 33.3352 21.5969 33.2407 21.6H24.8407V10.8H33.0247C33.1051 10.8 33.1847 10.8158 33.2589 10.8466C33.3332 10.8774 33.4006 10.9225 33.4574 10.9794C33.5142 11.0363 33.5593 11.1038 33.59 11.1781C33.6207 11.2523 33.6364 11.332 33.6363 11.4123L33.6007 21.24Z" fill="#000000"/>
</svg>
