<svg width="30" height="30" viewBox="0 0 30 30" fill="none" xmlns="http://www.w3.org/2000/svg">
<g id="Vector">
<path d="M29.6183 7.06113C29.2458 6.62962 28.7262 6.37463 28.2164 6.37463H7.11781L6.50996 1.52991C6.40211 0.657077 5.63739 0 4.75501 0H1.27454C0.568641 0 0 0.568813 0 1.27493C0 1.98104 0.568641 2.54985 1.27454 2.54985H4.09814L4.75501 7.83589L6.3727 19.6437C6.49035 20.5165 7.24527 21.1736 8.13745 21.1736H24.5986C25.3437 21.1736 26.0594 20.6538 26.2947 19.9379L29.9811 8.61066C30.0497 8.00261 29.9321 7.47303 29.6183 7.06113ZM23.9908 18.6237H8.78452L7.49037 8.92449H27.1771L23.9908 18.6237Z" fill="black"/>
<path d="M22.1966 21.5659C19.873 21.5659 17.9808 23.4586 17.9808 25.7829C17.9808 28.1072 19.873 30 22.1966 30C24.5202 30 26.4124 28.1072 26.4124 25.7829C26.4124 23.4586 24.5202 21.5659 22.1966 21.5659ZM22.1966 27.4501C21.275 27.4501 20.5299 26.7048 20.5299 25.7829C20.5299 24.8611 21.275 24.1157 22.1966 24.1157C23.1182 24.1157 23.8633 24.8611 23.8633 25.7829C23.8633 26.7048 23.1084 27.4501 22.1966 27.4501Z" fill="black"/>
<path d="M10.1865 21.5659C7.86293 21.5659 5.97073 23.4586 5.97073 25.7829C5.97073 28.1072 7.86293 30 10.1865 30C12.5101 30 14.4023 28.1072 14.4023 25.7829C14.4023 23.4586 12.5101 21.5659 10.1865 21.5659ZM10.1865 27.4501C9.26492 27.4501 8.51981 26.7048 8.51981 25.7829C8.51981 24.8611 9.26492 24.1157 10.1865 24.1157C11.1081 24.1157 11.8532 24.8611 11.8532 25.7829C11.8532 26.7048 11.1081 27.4501 10.1865 27.4501Z" fill="black"/>
</g>
</svg>
