<svg width="38" height="38" viewBox="0 0 38 38" fill="none" xmlns="http://www.w3.org/2000/svg">
<path d="M19.0108 3.03202e-06C15.252 -0.00211996 11.577 1.11068 8.45081 3.19761C5.32462 5.28454 2.88776 8.25181 1.44836 11.724C0.00896485 15.1963 -0.368216 19.0174 0.364563 22.7041C1.09734 26.3907 2.90715 29.7772 5.565 32.435C8.22285 35.0929 11.6092 36.9027 15.2959 37.6354C18.9825 38.3682 22.8037 37.991 26.2759 36.5516C29.7482 35.1122 32.7155 32.6753 34.8024 29.5491C36.8894 26.4229 38.0021 22.748 38 18.9893C38 13.953 35.9993 9.123 32.4382 5.56182C28.877 2.00064 24.047 3.03202e-06 19.0108 3.03202e-06ZM29.1763 21.7051C29.1763 22.915 28.6957 24.0754 27.8401 24.931C26.9845 25.7866 25.8241 26.2672 24.6141 26.2672H12.9565C11.7465 26.2672 10.5861 25.7866 9.73051 24.931C8.87494 24.0754 8.39433 22.915 8.39433 21.7051V16.2842C8.39433 15.0742 8.87494 13.9138 9.73051 13.0583C10.5861 12.2027 11.7465 11.722 12.9565 11.722H24.6249C25.8348 11.722 26.9953 12.2027 27.8508 13.0583C28.7064 13.9138 29.187 15.0742 29.187 16.2842L29.1763 21.7051Z" fill="white"/>
<path d="M22.1023 18.8604L17.0892 16.1446C16.8853 16.0265 16.1876 16.1446 16.1876 16.4022V21.7158C16.1876 21.9519 16.8853 22.1022 17.0892 21.9841L22.3169 19.3972C22.5316 19.2898 22.3062 18.9785 22.1023 18.8604Z" fill="white"/>
</svg>
