<svg width="33" height="28" viewBox="0 0 33 28" fill="none" xmlns="http://www.w3.org/2000/svg">
<path d="M29.8824 12.1754H29.6586C29.3374 8.8407 27.8129 5.74726 25.3817 3.49685C22.9505 1.24644 19.7864 0 16.505 0C13.2236 0 10.0595 1.24644 7.62834 3.49685C5.19713 5.74726 3.67264 8.8407 3.35145 12.1754H3.13264C2.30097 12.1779 1.50419 12.517 0.916968 13.1184C0.329747 13.7198 -3.55524e-06 14.5344 0 15.3836V20.1005C-3.55524e-06 20.9497 0.329747 21.7643 0.916968 22.3657C1.50419 22.9671 2.30097 23.3062 3.13264 23.3087H4.92069C5.40589 23.3052 5.87032 23.1072 6.21397 22.7574C6.55761 22.4076 6.75299 21.934 6.75801 21.4385V14.066C6.75754 13.6342 6.61226 13.2156 6.34635 12.8798C6.08044 12.544 5.70993 12.3114 5.2965 12.2206C5.59134 9.39592 6.89895 6.78245 8.96763 4.88323C11.0363 2.98401 13.7198 1.93328 16.5017 1.93328C19.2835 1.93328 21.967 2.98401 24.0357 4.88323C26.1044 6.78245 27.412 9.39592 27.7068 12.2206C27.2934 12.3114 26.9229 12.544 26.657 12.8798C26.3911 13.2156 26.2458 13.6342 26.2453 14.066V21.4385C26.248 21.5369 26.2578 21.635 26.2746 21.7319C24.3184 23.3824 21.9181 24.3883 19.3904 24.6169C19.3249 24.241 19.1323 23.9005 18.8462 23.6547C18.56 23.409 18.1985 23.2735 17.8245 23.2721H15.1888C14.7682 23.2697 14.3636 23.4369 14.0628 23.7371C13.762 24.0374 13.5892 24.4467 13.582 24.8762V26.3686C13.5824 26.8004 13.7503 27.2144 14.0489 27.5202C14.3476 27.8259 14.7526 27.9984 15.1755 28H17.8062C18.1947 27.9993 18.5695 27.8531 18.8595 27.589C19.1496 27.3249 19.3346 26.9614 19.3796 26.5673C22.3742 26.3334 25.2229 25.1517 27.529 23.1868C27.707 23.2464 27.8928 23.2783 28.0801 23.2814H29.8674C30.6992 23.279 31.4961 22.9397 32.0833 22.3382C32.6706 21.7366 33.0002 20.9217 33 20.0723V15.3819C33.0002 14.5352 32.6726 13.7228 32.0886 13.1218C31.5046 12.5208 30.7115 12.18 29.8824 12.1737V12.1754ZM4.81295 21.3191H3.12763C2.81236 21.3178 2.51052 21.1887 2.28846 20.9601C2.0664 20.7316 1.94228 20.4224 1.94339 20.1005V15.3845C1.94273 15.225 1.97284 15.067 2.03199 14.9194C2.09115 14.7718 2.1782 14.6375 2.28816 14.5243C2.39813 14.411 2.52886 14.321 2.6729 14.2594C2.81693 14.1977 2.97145 14.1656 3.12763 14.165H4.81295V21.3191ZM15.5304 26.0351V25.2395H17.4796V26.0351H15.5304ZM31.0641 20.1005C31.0652 20.4224 30.9411 20.7316 30.7191 20.9601C30.497 21.1887 30.1952 21.3178 29.8799 21.3191H28.1971V14.165H29.8874C30.0436 14.1656 30.1981 14.1977 30.3421 14.2594C30.4862 14.321 30.6169 14.411 30.7269 14.5243C30.8368 14.6375 30.9239 14.7718 30.983 14.9194C31.0422 15.067 31.0723 15.225 31.0716 15.3845L31.0641 20.1005Z" fill="#000000"/>
</svg>
