<svg width="38" height="38" viewBox="0 0 38 38" fill="none" xmlns="http://www.w3.org/2000/svg">
<path d="M23.4467 9.93499H14.5535C13.3343 9.93499 12.1651 10.4193 11.303 11.2814C10.4409 12.1435 9.9565 13.3127 9.9565 14.5319V23.4251C9.9565 24.6443 10.4409 25.8135 11.303 26.6756C12.1651 27.5377 13.3343 28.022 14.5535 28.022H23.4467C24.6659 28.022 25.8351 27.5377 26.6972 26.6756C27.5593 25.8135 28.0435 24.6443 28.0435 23.4251V14.5319C28.0435 13.3127 27.5593 12.1435 26.6972 11.2814C25.8351 10.4193 24.6659 9.93499 23.4467 9.93499ZM19.086 24.4347C18.0005 24.4347 16.9393 24.1128 16.0367 23.5097C15.1342 22.9067 14.4308 22.0495 14.0154 21.0466C13.6 20.0437 13.4912 18.9402 13.703 17.8756C13.9147 16.8109 14.4375 15.833 15.2051 15.0654C15.9727 14.2978 16.9507 13.7751 18.0153 13.5633C19.08 13.3516 20.1835 13.4603 21.1863 13.8757C22.1892 14.2911 23.0463 14.9945 23.6494 15.8971C24.2525 16.7997 24.5744 17.8608 24.5744 18.9463C24.5715 20.401 23.9925 21.7954 22.9638 22.8241C21.9351 23.8527 20.5407 24.4319 19.086 24.4347ZM24.8966 14.3923C24.6366 14.3944 24.3818 14.3191 24.1646 14.176C23.9475 14.0328 23.7779 13.8283 23.6774 13.5884C23.5769 13.3485 23.55 13.0842 23.6002 12.829C23.6504 12.5738 23.7754 12.3394 23.9593 12.1555C24.1432 11.9716 24.3778 11.8465 24.633 11.7963C24.8881 11.7461 25.1525 11.773 25.3924 11.8735C25.6322 11.974 25.8367 12.1436 25.9799 12.3607C26.123 12.5778 26.1983 12.8326 26.1962 13.0927C26.199 13.2657 26.1677 13.4375 26.1038 13.5983C26.0399 13.759 25.9447 13.9056 25.8238 14.0294C25.703 14.1532 25.559 14.2518 25.3998 14.3197C25.2407 14.3875 25.0696 14.4231 24.8966 14.4245V14.3923Z" fill="white"/>
<path d="M19.0859 15.4664C18.3913 15.4664 17.7123 15.6723 17.1348 16.0583C16.5572 16.4442 16.1069 16.9927 15.8411 17.6345C15.5753 18.2762 15.5058 18.9824 15.6413 19.6637C15.7768 20.345 16.1113 20.9708 16.6024 21.462C17.0936 21.9532 17.7195 22.2877 18.4008 22.4232C19.082 22.5587 19.7882 22.4891 20.4299 22.2233C21.0717 21.9575 21.6202 21.5073 22.0062 20.9298C22.3921 20.3522 22.5981 19.6732 22.5981 18.9785C22.5981 18.047 22.2281 17.1537 21.5694 16.495C20.9108 15.8364 20.0174 15.4664 19.0859 15.4664Z" fill="white"/>
<path d="M19 0C15.2422 0 11.5688 1.11434 8.44424 3.20208C5.31971 5.28983 2.88431 8.25722 1.44624 11.729C0.00817594 15.2008 -0.368012 19.0211 0.365108 22.7067C1.09823 26.3923 2.90774 29.7778 5.56493 32.435C8.22213 35.0922 11.6077 36.9018 15.2933 37.6349C18.9789 38.368 22.7992 37.9918 26.271 36.5537C29.7428 35.1156 32.7101 32.6804 34.7979 29.5558C36.8856 26.4313 38 22.7578 38 19C38 13.9609 35.9982 9.12815 32.435 5.56496C28.8718 2.00177 24.0392 0 19 0ZM30.138 23.4251C30.1351 25.1989 29.4293 26.8992 28.175 28.1535C26.9207 29.4077 25.2204 30.1136 23.4466 30.1164H14.5534C12.7797 30.1136 11.0794 29.4077 9.82509 28.1535C8.57084 26.8992 7.86495 25.1989 7.86211 23.4251V14.5319C7.86211 12.7573 8.56708 11.0553 9.82195 9.80044C11.0768 8.54557 12.7788 7.84059 14.5534 7.84059H23.4466C25.2204 7.84343 26.9207 8.54931 28.175 9.80357C29.4293 11.0578 30.1351 12.7582 30.138 14.5319V23.4251Z" fill="white"/>
</svg>
