<svg width="30" height="30" viewBox="0 0 30 30" fill="none" xmlns="http://www.w3.org/2000/svg">
<path d="M21 11.7423C21 14.4104 18.7359 16.6145 16.8113 18.5286L16.4151 18.9346V20.0946C16.4151 20.9067 15.7925 21.5447 15 21.5447C14.2075 21.5447 13.5849 20.9067 13.5849 20.0946V18.8186C13.5849 18.1225 13.8679 17.4265 14.3208 16.9625L14.8302 16.4405C16.3019 14.9904 18.1698 13.1343 18.1698 11.7423C18.1698 10.1762 16.7547 8.90013 15 8.90013C13.2453 8.90013 11.8302 10.1762 11.8302 11.7423C11.8302 12.5543 11.2075 13.1923 10.4151 13.1923C9.62264 13.1923 9 12.5543 9 11.7423C9 8.61012 11.717 6 15 6C18.283 6 21 8.61012 21 11.7423ZM16.3585 23.2599C16.3585 23.3759 16.4151 23.4339 16.4151 23.5499C16.4151 23.956 16.2453 24.304 16.0189 24.594C15.7358 24.884 15.3962 25 15 25C14.6038 25 14.2642 24.826 13.9811 24.594C13.6981 24.304 13.5849 23.956 13.5849 23.5499V23.2599C13.5849 23.1439 13.6415 23.0859 13.6415 22.9699C13.6981 22.9119 13.6981 22.7959 13.7547 22.7379C13.8113 22.6799 13.8679 22.5639 13.9245 22.5059C13.9811 22.4479 14.0377 22.3899 14.1509 22.3319C14.2075 22.2739 14.3208 22.2159 14.3774 22.2159C14.434 22.1579 14.5472 22.1579 14.6604 22.1579C14.8302 22.0999 15.0566 22.0999 15.2264 22.1579C15.3396 22.1579 15.3962 22.2159 15.5094 22.2159C15.6226 22.2159 15.6792 22.2739 15.7358 22.3319C15.7925 22.3899 15.9057 22.4479 15.9623 22.5059C16.0189 22.5639 16.0755 22.6219 16.1321 22.7379C16.1887 22.7959 16.2453 22.9119 16.2453 22.9699C16.3019 23.0279 16.3585 23.1439 16.3585 23.2599Z" fill="#000000"/>
<path fill-rule="evenodd" clip-rule="evenodd" d="M15 0C6.72679 0 0 6.7262 0 14.9973C0 23.2684 6.72589 30 15 30C23.2741 30 30 23.264 30 14.9973C30 6.73067 23.2661 0 15 0ZM15 2.50045C17.4725 2.50045 19.8895 3.23383 21.9452 4.60783C24.0009 5.98183 25.6031 7.93472 26.549 10.2195C27.4949 12.5043 27.7422 15.0184 27.2594 17.4437C26.7767 19.8691 25.5856 22.0967 23.8369 23.845C22.0882 25.5932 19.8605 26.7835 17.4353 27.2653C15.0102 27.7471 12.4967 27.4988 10.2127 26.5517C7.92876 25.6046 5.9769 24.0013 4.60402 21.9446C3.23115 19.888 2.49894 17.4703 2.5 14.9973C2.49788 13.3552 2.8198 11.7287 3.4473 10.2112C4.0748 8.69374 4.99555 7.31501 6.15677 6.15408C7.31799 4.99314 8.69687 4.07282 10.2144 3.44586C11.7319 2.8189 13.3581 2.49763 15 2.50045Z" fill="#000000"/>
</svg>
