<svg width="18" height="18" viewBox="0 0 18 18" fill="none" xmlns="http://www.w3.org/2000/svg">
<path d="M7.63959 1.70827e-05C6.43362 0.000471463 5.24488 0.286421 4.17054 0.834491C3.0962 1.38256 2.16676 2.17719 1.45821 3.15342C0.749659 4.12965 0.282105 5.25977 0.0937706 6.45139C-0.0945634 7.643 0.00166883 8.86229 0.374601 10.0096C0.747534 11.1569 1.38658 12.1996 2.2395 13.0525C3.09241 13.9054 4.13499 14.5442 5.28199 14.9169C6.429 15.2895 7.64787 15.3853 8.83896 15.1964C10.0301 15.0075 11.1596 14.5393 12.1352 13.8301L15.9419 17.6378C16.0528 17.7515 16.1851 17.8421 16.3312 17.9043C16.4773 17.9664 16.6343 17.999 16.7931 18C16.9518 18.001 17.1092 17.9704 17.2561 17.9101C17.403 17.8498 17.5364 17.7609 17.6487 17.6486C17.761 17.5363 17.8498 17.4028 17.9101 17.2558C17.9704 17.1089 18.001 16.9515 18 16.7926C17.999 16.6338 17.9665 16.4767 17.9043 16.3306C17.8422 16.1844 17.7516 16.0521 17.6379 15.9412L13.8317 12.1335C14.6612 10.9928 15.1588 9.64453 15.2694 8.23822C15.3799 6.83192 15.099 5.42246 14.4579 4.16605C13.8168 2.90964 12.8404 1.85535 11.637 1.12002C10.4336 0.38469 9.05023 -0.00296558 7.64012 1.70827e-05H7.63959ZM7.63959 12.8921C6.4244 12.8937 5.24631 12.4735 4.30612 11.7034C3.36592 10.9332 2.72183 9.86069 2.48364 8.66863C2.24544 7.47658 2.42789 6.23878 2.99988 5.16623C3.57186 4.09368 4.49798 3.25278 5.62037 2.78686C6.74276 2.32094 7.99193 2.25885 9.15496 2.61117C10.318 2.96349 11.3229 3.70842 11.9983 4.71896C12.6738 5.7295 12.978 6.94312 12.8591 8.15292C12.7402 9.36272 12.2055 10.4938 11.3463 11.3534C10.3635 12.3376 9.0302 12.8911 7.63959 12.8921Z" fill="black"/>
</svg>
