<svg width="82" height="62" viewBox="0 0 82 62" fill="none" xmlns="http://www.w3.org/2000/svg">
<path fill-rule="evenodd" clip-rule="evenodd" d="M19.2605 8.5059H25.7529C26.09 8.5059 26.4133 8.63974 26.6516 8.87797C26.89 9.1162 27.0239 9.43931 27.0239 9.77622V12.9842C28.7951 13.4268 30.4911 14.1291 32.0565 15.0683L34.326 12.7998C34.4439 12.6818 34.584 12.5882 34.7381 12.5243C34.8922 12.4604 35.0575 12.4275 35.2243 12.4275C35.3912 12.4275 35.5564 12.4604 35.7106 12.5243C35.8647 12.5882 36.0047 12.6818 36.1226 12.7998L37.5151 14.1916L45.1745 6.43504C45.2924 6.31512 45.433 6.21995 45.5881 6.15511C45.7433 6.09027 45.9098 6.05707 46.078 6.05745H50.1368V4.17685C50.1395 3.06991 50.5807 2.00908 51.3638 1.22636C52.1469 0.443634 53.2083 0.00270504 54.3157 0H77.8211C78.9286 0.00270504 79.9899 0.443634 80.773 1.22636C81.5561 2.00908 81.9973 3.06991 82 4.17685V10.4699C81.9973 11.5769 81.5561 12.6377 80.773 13.4204C79.9899 14.2031 78.9286 14.6441 77.8211 14.6468H54.3143C53.2068 14.6441 52.1454 14.2031 51.3623 13.4204C50.5792 12.6377 50.1381 11.5769 50.1354 10.4699V8.59664H46.6036L39.3088 15.9859L40.7086 17.3894C40.9468 17.6278 41.0806 17.951 41.0806 18.288C41.0806 18.6249 40.9468 18.9481 40.7086 19.1866L38.4391 21.455C38.9085 22.2379 39.3196 23.0543 39.669 23.8976C40.0173 24.7377 40.3027 25.6026 40.5227 26.4851H43.7323C44.0693 26.4851 44.3926 26.6189 44.631 26.8571C44.8693 27.0954 45.0032 27.4185 45.0032 27.7554V29.7282H50.128V27.8491C50.1304 26.7421 50.5714 25.6812 51.3547 24.8987C52.1379 24.1161 53.1995 23.6756 54.307 23.6737H77.8196C78.9273 23.6752 79.9893 24.1155 80.7729 24.8982C81.5564 25.6808 81.9977 26.7419 82 27.8491V34.1421C81.9977 35.2493 81.5564 36.3104 80.7729 37.0931C79.9893 37.8757 78.9273 38.316 77.8196 38.3175H54.3143C53.2068 38.3148 52.1454 37.8739 51.3623 37.0912C50.5792 36.3084 50.1381 35.2476 50.1354 34.1407V32.2703H45.0105V34.2431C45.0105 34.58 44.8766 34.9032 44.6383 35.1414C44.3999 35.3796 44.0767 35.5135 43.7396 35.5135H40.5285C40.3067 36.396 40.0209 37.2613 39.6734 38.1024C39.3245 38.9459 38.9134 39.7624 38.4434 40.545L40.713 42.8134C40.831 42.9316 40.9245 43.0719 40.9882 43.2262C41.0519 43.3806 41.0844 43.546 41.084 43.7129C41.0836 43.8799 41.0502 44.0451 40.9858 44.1992C40.9214 44.3532 40.8272 44.493 40.7086 44.6106L39.3044 46.0141L46.5978 53.4034H50.131V51.5257C50.1337 50.4187 50.5748 49.3579 51.3579 48.5752C52.141 47.7925 53.2024 47.3515 54.3099 47.3488H77.8196C78.9276 47.3504 79.9898 47.7909 80.7734 48.5738C81.557 49.3568 81.9981 50.4183 82 51.5257V57.8188C81.9981 58.9257 81.5574 59.9867 80.7744 60.7696C79.9914 61.5524 78.93 61.9933 77.8225 61.9956H54.3128C53.2053 61.9929 52.144 61.552 51.3609 60.7692C50.5777 59.9865 50.1366 58.9257 50.1339 57.8188V55.9455H46.075C45.9069 55.9459 45.7403 55.9127 45.5852 55.8478C45.43 55.783 45.2894 55.6878 45.1716 55.5679L37.5151 47.8113L36.1226 49.2016C36.0048 49.3198 35.8648 49.4136 35.7107 49.4776C35.5565 49.5416 35.3913 49.5745 35.2243 49.5745C35.0574 49.5745 34.8921 49.5416 34.738 49.4776C34.5838 49.4136 34.4438 49.3198 34.326 49.2016L32.0565 46.9332C31.2728 47.4031 30.4555 47.8145 29.6112 48.164C28.7714 48.5133 27.9065 48.799 27.0239 49.0187V52.2208C27.0239 52.5578 26.89 52.8809 26.6516 53.1191C26.4133 53.3573 26.09 53.4912 25.7529 53.4912C25.7154 53.4934 25.6777 53.4934 25.6402 53.4912H19.262C18.9263 53.4912 18.6044 53.358 18.3669 53.1209C18.1294 52.8838 17.9958 52.5622 17.9954 52.2267V49.0143C16.2243 48.5708 14.5281 47.869 12.9614 46.9317L10.6918 49.2002C10.4533 49.4382 10.1299 49.572 9.7928 49.572C9.45567 49.572 9.13232 49.4382 8.89376 49.2002L4.29753 44.6106C4.17928 44.4929 4.08545 44.3529 4.02143 44.1989C3.95741 44.0448 3.92445 43.8796 3.92445 43.7127C3.92445 43.5459 3.95741 43.3807 4.02143 43.2266C4.08545 43.0726 4.17928 42.9326 4.29753 42.8149L6.56709 40.5465C6.09749 39.7629 5.68592 38.946 5.33567 38.1024C4.98622 37.263 4.70038 36.3986 4.48056 35.5164H1.27096C0.934133 35.5156 0.61139 35.3812 0.373631 35.1428C0.135871 34.9043 0.0025416 34.5813 0.00293054 34.2446V27.7554C0.00293054 27.4185 0.136834 27.0954 0.375184 26.8571C0.613535 26.6189 0.936807 26.4851 1.27389 26.4851H4.48348C4.92796 24.715 5.62997 23.0198 6.56709 21.4535L4.29753 19.1866C4.17928 19.0688 4.08545 18.9289 4.02143 18.7748C3.95741 18.6207 3.92445 18.4555 3.92445 18.2887C3.92445 18.1219 3.95741 17.9567 4.02143 17.8026C4.08545 17.6485 4.17928 17.5086 4.29753 17.3908L8.88643 12.8028C9.00437 12.6845 9.14449 12.5907 9.29876 12.5267C9.45304 12.4627 9.61843 12.4297 9.78547 12.4297C9.95251 12.4297 10.1179 12.4627 10.2722 12.5267C10.4265 12.5907 10.5666 12.6845 10.6845 12.8028L12.9541 15.0712C13.7382 14.6021 14.5554 14.1908 15.3993 13.8404C16.2408 13.4913 17.1071 13.2051 17.991 12.9842V9.77915C17.9914 9.44366 18.125 9.12204 18.3625 8.88495C18.6 8.64785 18.9219 8.51468 19.2576 8.51468L19.2605 8.5059ZM24.482 11.048H20.5286V13.9326C20.5456 14.2401 20.45 14.5434 20.2598 14.7857C20.0696 15.0281 19.7977 15.193 19.4948 15.2497C18.4229 15.4539 17.3745 15.7662 16.3657 16.182C15.3814 16.5902 14.4405 17.0961 13.5573 17.6923C13.3131 17.8822 13.0079 17.9763 12.6991 17.9569C12.3903 17.9375 12.0993 17.8059 11.8808 17.587L9.78987 15.4971L6.99611 18.288L9.08118 20.3749C9.28953 20.5841 9.4182 20.8595 9.44494 21.1535C9.47167 21.4474 9.3948 21.7415 9.2276 21.9848C8.01144 23.769 7.17057 25.7815 6.75598 27.9003C6.71938 28.2091 6.57062 28.4937 6.33795 28.7C6.10528 28.9064 5.80489 29.0202 5.49381 29.0199H2.54484V32.9713H5.50113C5.79676 32.9714 6.08309 33.0746 6.31062 33.2633C6.53815 33.452 6.69257 33.7142 6.74719 34.0046C6.9512 35.076 7.26371 36.1239 7.67991 37.1321C8.08827 38.116 8.59451 39.0564 9.191 39.9391C9.3811 40.1834 9.4753 40.4887 9.45589 40.7976C9.43647 41.1065 9.30477 41.3977 9.08557 41.6163L6.99465 43.7062L9.78694 46.4971L11.8793 44.4072C12.0891 44.1997 12.3645 44.0716 12.6584 44.0449C12.9522 44.0182 13.2463 44.0945 13.49 44.2608C15.2738 45.4787 17.2878 46.3193 19.4084 46.7312C19.7173 46.7678 20.0021 46.9165 20.2086 47.1491C20.4151 47.3816 20.5289 47.6818 20.5286 47.9928V50.952H24.482V47.9957C24.4826 47.7002 24.5864 47.4141 24.7753 47.1868C24.9643 46.9594 25.2266 46.8051 25.5172 46.7503C27.6423 46.3494 29.6629 45.5182 31.4547 44.3077C31.6991 44.1184 32.0042 44.0246 32.3128 44.044C32.6215 44.0634 32.9124 44.1946 33.1312 44.413L35.2221 46.5029L38.0159 43.712L35.925 41.6221C35.7171 41.4127 35.5888 41.1373 35.5621 40.8435C35.5354 40.5497 35.6119 40.2558 35.7785 40.0123C36.3928 39.1128 36.913 38.1526 37.3306 37.1467C37.7371 36.1639 38.0451 35.1432 38.2502 34.0997C38.2871 33.7911 38.4359 33.5067 38.6685 33.3003C38.9011 33.094 39.2013 32.9801 39.5123 32.9801H42.4657V29.0287H39.5109C39.2153 29.0283 38.9291 28.925 38.7017 28.7363C38.4742 28.5477 38.3197 28.2857 38.2648 27.9954C37.8638 25.8713 37.0321 23.8517 35.821 22.0609C35.6315 21.8163 35.5377 21.5111 35.5571 21.2024C35.5765 20.8937 35.7078 20.6026 35.9264 20.3837L38.0174 18.2938L35.2251 15.5029L33.1341 17.5928C32.9244 17.8003 32.649 17.9284 32.3551 17.9551C32.0612 17.9818 31.7672 17.9055 31.5235 17.7392C29.7391 16.5211 27.7246 15.6799 25.6036 15.2673C25.2947 15.2301 25.0101 15.081 24.8037 14.8483C24.5973 14.6156 24.4834 14.3153 24.4834 14.0043V11.048H24.482ZM22.5082 18.9144C19.711 18.9136 17.0001 19.8824 14.8374 21.6555C12.6747 23.4286 11.194 25.8964 10.6477 28.6384C10.1014 31.3804 10.5232 34.2269 11.8413 36.6928C13.1594 39.1588 15.2922 41.0916 17.8763 42.162C20.4604 43.2324 23.3359 43.3741 26.0128 42.5629C28.6897 41.7518 31.0023 40.038 32.5567 37.7136C34.1111 35.3891 34.811 32.5979 34.5371 29.8155C34.2633 27.0331 33.0327 24.4317 31.0549 22.4546C29.9338 21.3309 28.6017 20.4397 27.135 19.8321C25.6682 19.2246 24.0959 18.9127 22.5082 18.9144ZM29.2598 24.2518C27.698 22.6891 25.6424 21.716 23.4433 21.4984C21.2442 21.2808 19.0376 21.8321 17.1996 23.0584C15.3616 24.2847 14.0059 26.1101 13.3635 28.2235C12.7212 30.3369 12.8319 32.6076 13.6769 34.6485C14.5218 36.6895 16.0487 38.3744 17.9973 39.4162C19.9459 40.458 22.1957 40.7923 24.3632 40.3619C26.5308 39.9316 28.4819 38.7633 29.8842 37.0562C31.2865 35.3491 32.0532 33.2088 32.0535 31C32.0556 29.7467 31.8098 28.5053 31.3304 27.3472C30.8509 26.1892 30.1473 25.1372 29.2598 24.2518ZM61.0995 49.8909V59.4608H77.8211C78.2542 59.4577 78.6686 59.2843 78.9747 58.9781C79.2808 58.6719 79.4539 58.2575 79.4566 57.8246V51.5315C79.4547 51.0984 79.2818 50.6836 78.9755 50.3772C78.6693 50.0708 78.2544 49.8976 77.8211 49.8953L61.0995 49.8909ZM58.5562 59.4594V49.8895H54.3099C53.8763 49.8914 53.4611 50.0644 53.1545 50.3708C52.8479 50.6773 52.6748 51.0923 52.6729 51.5257V57.8188C52.6748 58.2521 52.8479 58.6672 53.1545 58.9736C53.4611 59.28 53.8763 59.453 54.3099 59.455L58.5562 59.4594ZM61.0995 26.2173V35.7857H77.8211C78.2544 35.7834 78.6693 35.6102 78.9755 35.3038C79.2818 34.9974 79.4547 34.5826 79.4566 34.1495V27.8564C79.4547 27.4233 79.2818 27.0084 78.9755 26.7021C78.6693 26.3957 78.2544 26.2225 77.8211 26.2202L61.0995 26.2173ZM58.5562 35.7857V26.2158H54.3099C53.8763 26.2177 53.4611 26.3907 53.1545 26.6972C52.8479 27.0036 52.6748 27.4186 52.6729 27.852V34.1451C52.6748 34.5784 52.8479 34.9935 53.1545 35.2999C53.4611 35.6063 53.8763 35.7794 54.3099 35.7813L58.5562 35.7857ZM61.0995 2.54357V12.1208H77.8211C78.2542 12.1177 78.6686 11.9443 78.9747 11.6381C79.2808 11.3318 79.4539 10.9174 79.4566 10.4846V4.19148C79.4539 3.75836 79.2806 3.34375 78.9742 3.03748C78.6678 2.73122 78.2529 2.55797 77.8196 2.55528L61.0995 2.54357ZM58.5562 12.1105V2.54357H54.3099C53.8763 2.5455 53.4611 2.7185 53.1545 3.02493C52.8479 3.33136 52.6748 3.74642 52.6729 4.17977V10.4729C52.6723 10.6889 52.7144 10.903 52.7966 11.1028C52.8789 11.3026 52.9998 11.4843 53.1524 11.6373C53.305 11.7904 53.4863 11.9119 53.6859 11.9948C53.8855 12.0778 54.0996 12.1206 54.3157 12.1208H58.562L58.5562 12.1105Z" fill="#FFFFFF"/>
</svg>
