<svg width="38" height="38" viewBox="0 0 38 38" fill="none" xmlns="http://www.w3.org/2000/svg">
<path d="M19.0505 0.0460565C15.7368 0.0375774 12.4785 0.892347 9.59891 2.52552C6.71931 4.15869 4.31858 6.5135 2.63502 9.35621C0.951459 12.1989 0.043616 15.4307 0.00153271 18.7308C-0.0405506 22.031 0.784634 25.2847 2.39516 28.169L2.62627 28.5835L0.0835073 38L9.59594 35.4675L10.0005 35.6861C12.5496 37.0411 15.375 37.8004 18.2625 37.9064C21.1501 38.0123 24.0239 37.4622 26.6663 36.2978C29.3086 35.1333 31.6502 33.3851 33.5135 31.1855C35.3767 28.9859 36.7127 26.3928 37.4203 23.6026C38.1279 20.8124 38.1886 17.8983 37.5975 15.0814C37.0065 12.2644 35.7794 9.61838 34.0091 7.34388C32.2389 5.06938 29.972 3.22605 27.3803 1.95366C24.7886 0.681264 21.94 0.0131615 19.0505 0V0.0460565Z" fill="#00B61D"/>
<path d="M29.767 25.7843C29.403 26.6163 28.8571 27.3394 28.1768 27.8905C27.4966 28.4416 26.7025 28.8041 25.8637 28.9465C24.3918 29.121 22.9038 28.8667 21.5528 28.2096C20.2539 27.7271 19.0105 27.0842 17.8471 26.2934C15.5255 24.7364 13.5072 22.7017 11.9058 20.3039C11.3969 19.6037 10.9227 18.8746 10.4853 18.1198C9.90387 17.1004 9.4627 15.9945 9.17587 14.8369C9.06217 14.3507 9.00422 13.8512 9.00308 13.3496C8.97571 12.4664 9.13122 11.5878 9.45829 10.7785C9.78536 9.96919 10.2755 9.24978 10.8928 8.67318C11.2514 8.3289 11.6945 8.10506 12.1682 8.02893C12.6419 7.95281 13.1258 8.02767 13.561 8.24439C14.412 9.01735 15.0384 10.0412 15.3643 11.1922C15.7887 12.0071 15.9862 12.938 15.9326 13.8721C15.7075 14.722 15.2817 15.4933 14.6974 16.1099C14.5357 16.2693 14.4356 16.4891 14.4173 16.7253C14.3989 16.9614 14.4637 17.1963 14.5985 17.3828C16.1833 20.3372 18.643 22.6229 21.5775 23.8681C21.7408 23.9705 21.9333 24.0039 22.1179 23.9619C22.3025 23.9198 22.4665 23.8053 22.5781 23.6403C23.0969 22.9436 23.6157 21.5768 24.4186 21.2285C24.9521 21.0917 25.5072 21.0881 26.0422 21.2181C26.5771 21.3481 27.0779 21.6082 27.5066 21.9788C28.3342 22.5148 29.7176 23.1714 29.977 24.2835C30.0418 24.7953 29.9688 25.3164 29.767 25.7843V25.7843Z" fill="white"/>
</svg>
