<svg width="24" height="30" viewBox="0 0 24 30" fill="none" xmlns="http://www.w3.org/2000/svg">
<path fill-rule="evenodd" clip-rule="evenodd" d="M16 9C16 6.79211 14.2077 5 11.9997 5C9.79163 5 8 6.79211 8 9C8 11.2079 9.79225 13 12.0003 13C14.2084 13 16 11.2079 16 9ZM10.1819 9C10.1819 7.99642 10.9966 7.1817 12.0003 7.1817C13.004 7.1817 13.8187 7.99642 13.8187 9C13.8187 10.0036 13.004 10.8183 12.0003 10.8183C10.9966 10.8183 10.1819 10.0036 10.1819 9Z" fill="#000000"/>
<path fill-rule="evenodd" clip-rule="evenodd" d="M22.7516 23.2909C21.545 22.3681 19.2257 21.5907 16.3182 21.2032C17.3162 19.8421 18.3635 18.2472 19.231 16.5554C20.4159 14.2459 21.2564 11.7552 21.2564 9.41813C21.257 4.22079 17.1081 0 11.9994 0C6.89073 0 2.74242 4.22079 2.74242 9.41873C2.74242 11.7558 3.5829 14.2465 4.76838 16.556C5.63589 18.2478 6.68325 19.8421 7.68183 21.2038C4.77426 21.5913 2.45501 22.3687 1.24837 23.2915C0.390851 23.9457 0 24.713 0 25.4653C0 26.333 0.546016 27.2432 1.72268 27.9644C3.65108 29.146 7.52667 30 12 30C16.4733 30 20.3489 29.146 22.2773 27.9644C23.454 27.2432 24 26.333 24 25.4653C24 24.713 23.6091 23.9457 22.7516 23.2909ZM4.79953 9.41933C4.79953 5.37555 8.02508 2.09365 11.9994 2.09365C15.9737 2.09365 19.1993 5.37555 19.1993 9.41933C19.1993 11.4436 18.4329 13.5881 17.4067 15.5878C15.7951 18.7286 13.524 21.5142 12.2433 22.9709C12.1804 23.0409 12.0923 23.0798 11.9994 23.0798C11.9077 23.0798 11.8184 23.0391 11.7567 22.9697C10.4742 21.5142 8.20316 18.7292 6.59157 15.5884C5.56654 13.5887 4.79953 11.4442 4.79953 9.41933ZM21.709 25.8043C21.4169 26.0818 20.9849 26.3306 20.4512 26.562C18.5451 27.3879 15.4677 27.9069 12.0006 27.9069C8.53348 27.9069 5.45604 27.3879 3.54998 26.562C3.01631 26.33 2.58432 26.0818 2.29221 25.8043C2.17172 25.6883 2.0577 25.5938 2.0577 25.4653C2.0577 25.3409 2.16584 25.2488 2.28104 25.1375C2.45972 24.9647 2.69364 24.8039 2.97399 24.649C4.27409 23.9302 6.41348 23.4045 8.96194 23.1629C9.03306 23.1563 9.10183 23.142 9.16824 23.1216C9.56086 23.6012 9.91997 24.021 10.2262 24.3685C10.2274 24.3685 10.2274 24.3697 10.2291 24.3715C10.6817 24.881 11.3247 25.1722 11.9994 25.1722C12.6741 25.1722 13.3171 24.8822 13.7697 24.3727C13.7709 24.3715 13.7726 24.3697 13.7738 24.3685C14.0794 24.021 14.4391 23.6006 14.8312 23.121C14.8976 23.142 14.9669 23.1557 15.0386 23.1629C17.5865 23.4045 19.7259 23.9302 21.0266 24.649C21.3064 24.8039 21.5409 24.9641 21.719 25.1375C21.8342 25.2494 21.9423 25.3415 21.9423 25.4653C21.9435 25.5938 21.8295 25.6883 21.709 25.8043Z" fill="#000000"/>
</svg>
