<svg width="39" height="39" viewBox="0 0 39 39" fill="none" xmlns="http://www.w3.org/2000/svg">
<path d="M20 3.03547e-06C16.2395 -0.0021215 12.563 1.11103 9.43526 3.19866C6.30754 5.2863 3.86926 8.25465 2.42874 11.7282C0.988214 15.2018 0.610173 19.0245 1.34249 22.713C2.07481 26.4014 3.88457 29.7898 6.54284 32.4496C9.20111 35.1093 12.5884 36.921 16.2764 37.6554C19.9645 38.3898 23.7875 38.014 27.2619 36.5754C30.7363 35.1368 33.7059 32.7002 35.7953 29.5737C37.8847 26.4471 39 22.7712 39 19.0108C39 13.9707 36.9986 9.13681 33.4357 5.57192C29.8728 2.00702 25.0401 0.00285055 20 3.03547e-06V3.03547e-06ZM14.5008 27.4206H10.3657V14.1453H14.5008V27.4206ZM12.428 12.3301C11.9543 12.3301 11.4911 12.1897 11.0972 11.9265C10.7033 11.6633 10.3964 11.2892 10.2151 10.8516C10.0338 10.4139 9.98646 9.93233 10.0789 9.46772C10.1713 9.00311 10.3993 8.57635 10.7343 8.24138C11.0693 7.90641 11.4961 7.67831 11.9607 7.5859C12.4253 7.49348 12.9069 7.5409 13.3446 7.72218C13.7822 7.90347 14.1562 8.21045 14.4194 8.60433C14.6826 8.9982 14.8231 9.46128 14.8231 9.93499C14.8245 10.2499 14.7635 10.562 14.6436 10.8533C14.5237 11.1445 14.3474 11.4091 14.1247 11.6318C13.902 11.8545 13.6374 12.0309 13.3461 12.1507C13.0549 12.2706 12.7429 12.3316 12.428 12.3301V12.3301ZM29.9565 27.4206H25.8321V20.9763C25.8321 19.4404 25.8321 17.4534 23.684 17.4534C21.5359 17.4534 21.2137 19.1289 21.2137 20.8581V27.4313H17.0893V14.1453H21.0525V15.9604C21.4451 15.2788 22.0173 14.718 22.7067 14.3392C23.3961 13.9604 24.1762 13.7782 24.9621 13.8123C29.1294 13.8123 29.9028 16.5619 29.9028 20.1385L29.9565 27.4206Z" fill="white"/>
</svg>
