<svg width="30" height="31" viewBox="0 0 30 31" fill="none" xmlns="http://www.w3.org/2000/svg">
<path d="M19.6642 17.6607C21.0064 15.473 22.9894 10.8301 17.9494 8.06354C8.82329 3.0492 5.86442 0.0030071 5.85974 0C8.04146 2.7953 10.6119 5.28753 13.4986 7.40649C19.0889 11.5082 18.5651 13.995 17.6563 15.5903C17.266 15.075 16.9346 14.5205 16.6679 13.9364C14.727 9.64828 11.6793 9.75653 10.6691 10.1384C7.92534 11.1714 7.71644 13.9439 7.99238 15.3197C8.24493 11.227 12.0628 10.2302 14.8626 15.043C15.929 16.8743 19.3976 20.3926 23.5086 22.1097C23.5086 22.1097 14.5368 22.8525 9.13664 17.8998C9.13664 17.8998 9.94573 19.9912 13.4237 22.4871L10.3557 26.9C10.3557 26.9 9.63395 28.5614 8.56451 28.0938C5.44662 26.7286 1.99979 26.4023 4.4489 19.2229C0.649749 15.5016 1.24215 11.0105 1.24215 11.0105C1.24215 11.0105 -1.78844 14.9438 1.61785 19.6499C-0.142196 25.9858 1.8704 27.9765 9.01816 30.8183C10.6925 31.4828 11.4626 30.1943 11.9069 29.0606C12.083 28.6095 14.2593 25.8144 16.116 23.3802C24.2366 25.2536 30 22.4209 30 22.4209C30 22.4209 23.811 21.0918 19.6548 17.6637" fill="#000000"/>
</svg>
