<svg width="38" height="38" viewBox="0 0 38 38" fill="none" xmlns="http://www.w3.org/2000/svg">
<path d="M18.9841 8.53765e-05C14.2117 -0.0143106 9.61013 1.79234 6.10074 5.05826C2.59134 8.32419 0.433183 12.8083 0.058469 17.6127C-0.316245 22.4171 1.12012 27.187 4.07994 30.9675C7.03976 34.7479 11.3045 37.2598 16.0203 38V24.6347H11.2162V19.1135H16.0203V14.8997C16.0203 10.1132 18.845 7.46609 23.1676 7.46609C24.6016 7.48386 26.0322 7.61027 27.4475 7.84426V12.5443H25.0613C24.6553 12.491 24.2426 12.5304 23.8536 12.6595C23.4646 12.7886 23.1092 13.0041 22.8136 13.2902C22.5179 13.5763 22.2896 13.9257 22.1454 14.3127C22.0011 14.6997 21.9445 15.1144 21.9799 15.5264V19.1135H27.2334L26.3881 24.6347H21.9799V38C26.6947 37.2599 30.9588 34.7489 33.9185 30.9696C36.8783 27.1903 38.3152 22.4216 37.9419 17.6181C37.5687 12.8146 35.4126 8.33064 31.9053 5.06385C28.398 1.79706 23.7983 -0.0115359 19.0269 8.53765e-05H18.9841Z" fill="white"/>
</svg>
