<svg width="28" height="35" viewBox="0 0 28 35" fill="#000000" xmlns="http://www.w3.org/2000/svg">
<path fill-rule="evenodd" clip-rule="evenodd" d="M16.743 1.03177C15.9858 0.366955 15.01 0 13.9994 0C12.9888 0 12.013 0.366955 11.2558 1.03177C11.0728 1.19273 10.8547 1.30934 10.6187 1.37246C10.3827 1.43558 10.1352 1.44347 9.89554 1.39553C8.90521 1.19584 7.87554 1.3626 7.00037 1.86439C6.1252 2.36619 5.46491 3.16842 5.1438 4.12004C5.06611 4.35005 4.93579 4.55904 4.76306 4.73059C4.59034 4.90214 4.37992 5.03157 4.14833 5.10873C3.19002 5.42766 2.38217 6.08356 1.87691 6.95292C1.37166 7.82228 1.20386 8.84511 1.40511 9.8288C1.45332 10.0667 1.44534 10.3124 1.38179 10.5467C1.31824 10.781 1.20085 10.9974 1.03885 11.1791C0.369475 11.9311 0 12.9002 0 13.9039C0 14.9077 0.369475 15.8768 1.03885 16.6288C1.20085 16.8104 1.31824 17.0269 1.38179 17.2612C1.44534 17.4955 1.45332 17.7412 1.40511 17.9791C1.21815 18.8933 1.34961 19.8435 1.77792 20.6738C2.20623 21.5041 2.90595 22.1652 3.7623 22.5486C2.29687 24.6642 1.13796 26.9738 0.319537 29.4097L0.179628 29.8266C0.0871622 30.1022 0.0680097 30.3969 0.124028 30.6821C0.180046 30.9673 0.309332 31.2332 0.499344 31.4542C0.689355 31.6751 0.933639 31.8435 1.20849 31.943C1.48334 32.0425 1.77943 32.0698 2.06802 32.0222L4.22011 31.6664C4.80612 31.5697 5.1394 31.5158 5.39212 31.502C5.45961 31.4959 5.52753 31.4959 5.59502 31.502L5.617 31.5064C5.62328 31.5104 5.62916 31.515 5.63458 31.5202C5.68371 31.5664 5.72835 31.617 5.76789 31.6715C5.92025 31.8701 6.09678 32.1589 6.40077 32.6631L6.99849 33.6518C7.1135 33.8431 7.24388 34.0592 7.37207 34.2302C7.58283 34.5312 7.88029 34.762 8.22544 34.8922C8.65856 35.045 9.13422 35.0268 9.5542 34.8413C9.88855 34.6844 10.1674 34.4308 10.3541 34.1138C10.4684 33.9341 10.5812 33.7085 10.6815 33.5092L11.3701 32.1422C11.436 32.0105 11.4712 31.9407 11.5056 31.8709C12.1756 30.529 12.7627 29.1478 13.2636 27.735C13.7481 27.8211 14.2441 27.8211 14.7286 27.735C15.2302 29.1496 15.8183 30.5325 16.4895 31.8759C16.524 31.9487 16.5591 32.0149 16.625 32.1459L17.3136 33.5143C17.4147 33.7136 17.5275 33.9392 17.6418 34.1189C17.8285 34.4359 18.1073 34.6894 18.4416 34.8464C18.8616 35.0318 19.3373 35.0501 19.7704 34.8973C20.1153 34.7667 20.4126 34.536 20.6238 34.2353C20.7512 34.0643 20.8816 33.8482 20.9974 33.6569L21.5943 32.6682C21.8991 32.164 22.0756 31.8752 22.228 31.6766C22.2673 31.6219 22.3119 31.5712 22.3613 31.5253C22.3667 31.5201 22.3726 31.5155 22.3789 31.5115H22.4045C22.472 31.5048 22.5399 31.5048 22.6074 31.5115C22.8579 31.5253 23.1934 31.5791 23.7794 31.6759L25.9308 32.0316C26.2194 32.0794 26.5156 32.0522 26.7905 31.9528C27.0655 31.8533 27.3099 31.6849 27.5 31.464C27.6901 31.243 27.8195 30.977 27.8755 30.6918C27.9316 30.4065 27.9124 30.1117 27.8199 29.836L27.68 29.4191C26.8614 26.9833 25.7025 24.6737 24.2372 22.558C25.0936 22.1746 25.7933 21.5136 26.2216 20.6833C26.6499 19.853 26.7814 18.9028 26.5944 17.9885C26.5462 17.7507 26.5543 17.505 26.6178 17.2707C26.6813 17.0364 26.7987 16.8199 26.9607 16.6383C27.6303 15.8864 28 14.9172 28 13.9134C28 12.9096 27.6303 11.9404 26.9607 11.1885C26.7988 11.0068 26.6814 10.7904 26.6179 10.5561C26.5543 10.3218 26.5463 10.0761 26.5944 9.83826C26.7956 8.85448 26.6277 7.83157 26.1223 6.9622C25.6169 6.09282 24.8089 5.43698 23.8504 5.11819C23.6189 5.04103 23.4084 4.91159 23.2357 4.74004C23.063 4.5685 22.9327 4.35951 22.855 4.1295C22.5362 3.17522 21.8765 2.36997 21.0006 1.86595C20.1246 1.36193 19.0931 1.19406 18.101 1.39407C17.8615 1.44207 17.6141 1.4342 17.3782 1.37108C17.1423 1.30796 16.9243 1.19131 16.7415 1.03032L16.743 1.03177ZM22.4726 24.507C22.0306 25.2334 21.3733 25.8062 20.5906 26.1471C19.808 26.4879 18.9384 26.5801 18.101 26.4109C17.7387 26.3375 17.3619 26.3931 17.0367 26.568C17.5262 27.9975 18.1098 29.3934 18.7837 30.7469C18.816 30.8109 18.8482 30.8756 18.917 31.0109L19.2291 31.6293L19.4232 31.3078C19.6566 30.9036 19.9109 30.5117 20.185 30.1336C20.4612 29.7698 20.8062 29.425 21.3035 29.1965C21.8009 28.9681 22.291 28.9332 22.7473 28.9586C23.2141 28.9968 23.6786 29.0587 24.1391 29.1442L24.9045 29.2707C24.2681 27.6008 23.4523 26.0039 22.4711 24.5077L22.4726 24.507ZM10.9606 26.568C10.6356 26.3933 10.2591 26.3377 9.89701 26.4109C9.05982 26.5797 8.19056 26.4874 7.40824 26.1466C6.62593 25.8058 5.96881 25.2331 5.5269 24.507C4.54577 26.0032 3.72993 27.6001 3.09352 29.27L3.85972 29.1434C4.32013 29.0579 4.78466 28.996 5.25148 28.9579C5.70709 28.9324 6.19714 28.9681 6.69451 29.1965C7.19188 29.425 7.53688 29.772 7.81377 30.1328C8.0885 30.5109 8.34374 30.9026 8.5785 31.3063L8.77262 31.6286L9.08393 31.0109L9.21651 30.7469C9.89044 29.3934 10.474 27.9975 10.9635 26.568H10.9606ZM12.9537 2.9393C13.2423 2.68588 13.6142 2.546 13.9994 2.546C14.3846 2.546 14.7565 2.68588 15.045 2.9393C15.5256 3.3603 16.0979 3.66482 16.7171 3.82893C17.3362 3.99304 17.9852 4.01225 18.6131 3.88506C18.9913 3.80899 19.3845 3.87331 19.7182 4.06584C20.0519 4.25837 20.303 4.56574 20.4238 4.92976C20.6276 5.53335 20.9695 6.08178 21.4227 6.53193C21.876 6.98209 22.4282 7.32169 23.0359 7.52406C23.4011 7.64547 23.709 7.89536 23.9015 8.22662C24.0941 8.55788 24.158 8.94764 24.0812 9.32246C23.9536 9.94632 23.9735 10.5911 24.1394 11.206C24.3053 11.8209 24.6126 12.3892 25.0371 12.8662C25.2927 13.1525 25.4338 13.522 25.4338 13.9047C25.4338 14.2874 25.2927 14.6568 25.0371 14.9432C24.6126 15.4201 24.3053 15.9884 24.1394 16.6033C23.9735 17.2183 23.9536 17.863 24.0812 18.4869C24.1568 18.8609 24.0923 19.2496 23.8998 19.5797C23.7073 19.9099 23.4002 20.159 23.0359 20.2802C22.4282 20.4826 21.876 20.8222 21.4227 21.2723C20.9695 21.7225 20.6276 22.2709 20.4238 22.8745C20.3027 23.2381 20.0516 23.545 19.7181 23.7372C19.3846 23.9295 18.9917 23.9937 18.6138 23.9177C17.9858 23.7904 17.3367 23.8096 16.7174 23.9737C16.0981 24.1378 15.5257 24.4424 15.045 24.8635C14.7565 25.1169 14.3846 25.2568 13.9994 25.2568C13.6142 25.2568 13.2423 25.1169 12.9537 24.8635C12.473 24.4423 11.9004 24.1376 11.281 23.9735C10.6616 23.8094 10.0123 23.7903 9.38426 23.9177C9.00687 23.994 8.61443 23.9305 8.28089 23.7393C7.94736 23.5481 7.69576 23.2423 7.57351 22.8796C7.37068 22.2751 7.02931 21.7257 6.57628 21.2747C6.12325 20.8236 5.57094 20.4832 4.96287 20.2802C4.59776 20.1586 4.28998 19.9087 4.09747 19.5775C3.90495 19.2463 3.84098 18.8566 3.91759 18.4818C4.04517 17.8579 4.02524 17.2132 3.85936 16.5983C3.69349 15.9833 3.3862 15.415 2.96167 14.9381C2.70652 14.6515 2.56568 14.2821 2.56568 13.8996C2.56568 13.517 2.70652 13.1477 2.96167 12.8611C3.3862 12.3841 3.69349 11.8158 3.85936 11.2009C4.02524 10.586 4.04517 9.94123 3.91759 9.31736C3.84114 8.94257 3.90519 8.55295 4.09768 8.22177C4.29017 7.89059 4.59786 7.64065 4.96287 7.51896C5.57011 7.31721 6.12201 6.97842 6.57522 6.52917C7.02844 6.07993 7.37065 5.53247 7.57497 4.92976C7.69664 4.56681 7.94777 4.26059 8.28105 4.06882C8.61432 3.87706 9.00671 3.81299 9.38426 3.8887C10.0126 4.01564 10.6621 3.99597 11.2815 3.83122C11.9009 3.66647 12.4734 3.36115 12.9537 2.9393Z" fill="#000000"/>
<path d="M18.1269 14.3447C18.8496 13.1098 19.9174 10.4887 17.2035 8.927C12.2895 6.09632 10.6962 4.3767 10.6937 4.375C11.8685 5.95299 13.2525 7.3599 14.8069 8.55608C17.8171 10.8715 17.5351 12.2754 17.0457 13.176C16.8355 12.8851 16.6571 12.572 16.5135 12.2423C15.4684 9.82161 13.8273 9.88272 13.2834 10.0983C11.806 10.6814 11.6935 12.2466 11.842 13.0232C11.978 10.7128 14.0338 10.1501 15.5414 12.867C16.1156 13.9008 17.9833 15.887 20.1969 16.8563C20.1969 16.8563 15.366 17.2756 12.4582 14.4797C12.4582 14.4797 12.8939 15.6604 14.7666 17.0693L13.1146 19.5605C13.1146 19.5605 12.726 20.4984 12.1501 20.2344C10.4713 19.4637 8.61527 19.2795 9.93402 15.2266C7.88833 13.1259 8.20731 10.5906 8.20731 10.5906C8.20731 10.5906 6.57545 12.811 8.40961 15.4677C7.46189 19.0444 8.5456 20.1682 12.3944 21.7724C13.2959 22.1476 13.7106 21.4202 13.9499 20.7802C14.0447 20.5255 15.2166 18.9477 16.2163 17.5735C20.5889 18.6311 23.6923 17.032 23.6923 17.032C23.6923 17.032 20.3598 16.2817 18.1218 14.3464" fill="#000000"/>
</svg>
