<svg width="144" height="46" viewBox="0 0 144 46" fill="none" xmlns="http://www.w3.org/2000/svg">
<path d="M37.5193 15.1529L36.2315 19.4266H42.5994V38.1025H48.5809V19.4266H53.8016L54.7705 15.1529H37.5193Z" fill="white"/>
<path d="M80.3826 33.5766C80.3826 33.9238 80.3034 34.081 79.818 34.081H77.7574C77.272 34.081 77.1908 33.9238 77.1908 33.5766V15.1471H71.2192V34.5466C71.2192 37.0685 72.4317 38.0908 75.7761 38.0908H86.3642V15.1529H80.3826V33.5766Z" fill="white"/>
<path d="M116.159 33.5766C116.159 33.9238 116.078 34.081 115.592 34.081H113.532C113.048 34.081 112.967 33.9238 112.967 33.5766V15.1471H106.985V34.5466C106.985 37.0685 108.198 38.0908 111.552 38.0908H122.138V15.1529H116.159V33.5766Z" fill="white"/>
<path d="M58.1367 15.1529L52.8427 38.1025H58.743L59.5533 33.4466L63.2405 34.8822L63.7933 38.1064H69.6936L64.3995 15.1568L58.1367 15.1529ZM60.2388 29.5085L61.2869 23.4733L62.4757 30.3776L60.2388 29.5085Z" fill="white"/>
<path d="M101.862 29.9683L102.682 29.0837C103.819 27.9074 104.463 26.3557 104.487 24.7363V18.1288C104.487 16.3246 103.275 15.1529 100.524 15.1529H89.4134V38.1025H95.274V29.7995L96.3519 30.2108L98.9573 38.0947H104.816L101.844 29.9586L101.862 29.9683ZM95.274 19.1725H98.143C98.5392 19.1725 98.7076 19.3665 98.7076 19.6478V24.7498C98.7001 25.2844 98.488 25.7967 98.1132 26.1854L95.274 25.101V19.1725Z" fill="white"/>
<path d="M130.573 23.9312V19.9291C130.573 19.5799 130.814 19.4227 131.3 19.4227H136.994L139.338 15.1549H128.837C126.089 15.1549 124.875 16.3188 124.875 18.1307V25.39C124.875 26.4337 125.635 27.3862 126.832 27.846L132.271 29.9237V33.3535C132.271 33.7027 132.108 33.8307 131.583 33.8307H124.875V38.0986H133.563C136.917 38.0986 138.048 37.15 138.048 34.6164V28.4959C138.048 27.4522 137.287 26.4977 136.089 26.0399L132.271 24.5849L130.573 23.9312Z" fill="white"/>
<path d="M140.636 15.5351H140.055V15.1471H141.654V15.5351H141.076V17.0482H140.636V15.5351ZM142.062 15.1471H142.528L143.037 15.9483L143.546 15.1471H144V17.0424H143.586V15.7621L143.049 16.5943H143.013L142.478 15.7621V17.0424H142.062V15.1471Z" fill="white"/>
<path d="M44.9432 43.7341C44.817 43.6284 44.6737 43.5438 44.5192 43.4839C44.3694 43.4277 44.2101 43.3994 44.0497 43.4005C43.9067 43.3949 43.7642 43.4186 43.6311 43.47C43.4981 43.5215 43.3775 43.5995 43.277 43.6992C43.1767 43.8025 43.0986 43.9243 43.0472 44.0576C42.9958 44.1908 42.9722 44.3328 42.9778 44.4752C42.9729 44.6142 42.9961 44.7527 43.0461 44.8829C43.0961 45.0131 43.1719 45.1323 43.269 45.2337C43.3626 45.331 43.4761 45.408 43.6021 45.4594C43.728 45.5109 43.8637 45.5358 44.0001 45.5325C44.1682 45.5336 44.335 45.5033 44.4915 45.4432C44.6551 45.3784 44.8064 45.2872 44.9393 45.1736V45.6935C44.8131 45.7801 44.6732 45.8456 44.5252 45.8875C44.3675 45.932 44.2039 45.9536 44.0398 45.9515C43.8293 45.955 43.6201 45.9188 43.4236 45.8448C43.2377 45.7758 43.0686 45.6697 42.927 45.533C42.7854 45.3964 42.6745 45.2324 42.6014 45.0514C42.5248 44.8665 42.4858 44.6688 42.4864 44.4694C42.4852 44.2699 42.5243 44.0721 42.6014 43.8874C42.6763 43.7062 42.7882 43.5418 42.9303 43.4044C43.0724 43.2669 43.2416 43.1593 43.4276 43.0881C43.777 42.9564 44.1617 42.9441 44.5192 43.0532C44.6793 43.1052 44.8308 43.1797 44.969 43.2744L44.9432 43.7341Z" fill="white"/>
<path d="M49.4745 44.4694C49.4755 44.6659 49.4358 44.8606 49.3576 45.0417C49.2802 45.223 49.1656 45.3868 49.0207 45.5228C48.8747 45.6615 48.7033 45.772 48.5155 45.8487C48.3268 45.9236 48.1248 45.9612 47.9211 45.9593C47.7171 45.9619 47.5145 45.9247 47.3254 45.8497C47.1362 45.7748 46.9643 45.6636 46.8195 45.5228C46.6752 45.3871 46.5606 45.2241 46.4827 45.0436C46.4049 44.8591 46.3658 44.6612 46.3678 44.4616C46.3659 44.2646 46.405 44.0693 46.4827 43.8875C46.5604 43.7058 46.675 43.5414 46.8195 43.4043C46.9637 43.2658 47.1348 43.1569 47.3228 43.0843C47.5116 43.0096 47.7135 42.972 47.9172 42.9737C48.1208 42.9715 48.3229 43.0091 48.5116 43.0843C48.6995 43.1569 48.8706 43.2658 49.0148 43.4043C49.1585 43.5435 49.273 43.709 49.3516 43.8913C49.4323 44.0738 49.4741 44.2705 49.4745 44.4694ZM48.9811 44.4694C48.9826 44.188 48.8717 43.9172 48.672 43.7147C48.575 43.6172 48.4591 43.5394 48.3313 43.4858C48.203 43.4317 48.0647 43.404 47.9251 43.4043C47.785 43.4039 47.6462 43.431 47.5169 43.4839C47.3877 43.5379 47.2705 43.6164 47.1722 43.7147C47.074 43.8138 46.996 43.9304 46.9424 44.0581C46.8902 44.1892 46.8634 44.3287 46.8631 44.4694C46.8628 44.6095 46.8897 44.7484 46.9424 44.8787C46.996 45.0058 47.074 45.1217 47.1722 45.2201C47.2691 45.32 47.3859 45.3993 47.5154 45.453C47.645 45.5068 47.7844 45.5338 47.9251 45.5325C48.0612 45.5319 48.1959 45.5049 48.3213 45.4529C48.5169 45.3699 48.6832 45.2324 48.7994 45.0575C48.9157 44.8826 48.9768 44.6781 48.9752 44.4694H48.9811Z" fill="white"/>
<path d="M53.3578 44.483C53.3578 44.4597 53.3439 44.3995 53.332 44.2987C53.3201 44.1978 53.3122 44.1493 53.3043 44.093C53.292 44.1589 53.2748 44.2237 53.2528 44.287C53.2295 44.3532 53.2024 44.4179 53.1715 44.481L52.4127 45.9961L51.6539 44.4442C51.6222 44.3808 51.5944 44.3161 51.5707 44.2502C51.5469 44.192 51.5271 44.1318 51.5092 44.0736C51.5067 44.2045 51.4887 44.3347 51.4558 44.4616L51.1447 45.8623H50.7108L51.3983 42.9019L52.2542 44.6944L52.3136 44.836C52.3414 44.9001 52.3731 44.9835 52.4127 45.0785C52.4405 44.997 52.484 44.8942 52.5415 44.7681C52.5558 44.7431 52.5684 44.7172 52.5791 44.6905L53.4153 42.9019L54.1166 45.8623H53.6788L53.3578 44.483Z" fill="white"/>
<path d="M55.9097 44.611V45.8855H55.4659V43.0435H56.1792C56.3358 43.0388 56.4926 43.0506 56.6467 43.0784C56.7402 43.0989 56.8289 43.1364 56.9083 43.189C57.0022 43.2585 57.076 43.3508 57.1223 43.4567C57.1748 43.5727 57.2011 43.6984 57.1995 43.8253C57.2009 43.954 57.1746 44.0816 57.1223 44.1997C57.0765 44.3055 57.0026 44.3972 56.9083 44.4655C56.8298 44.5196 56.7408 44.5573 56.6467 44.5761C56.4926 44.604 56.3358 44.6157 56.1792 44.611H55.9097ZM55.9394 44.223H56.0583C56.2375 44.2381 56.4177 44.2102 56.5833 44.1415C56.6292 44.1075 56.6653 44.0625 56.6882 44.0109C56.7111 43.9592 56.72 43.9027 56.7141 43.8467C56.7205 43.7857 56.711 43.7241 56.6864 43.6678C56.6617 43.6115 56.6229 43.5622 56.5734 43.5246C56.4136 43.4483 56.2355 43.4161 56.0583 43.4315H55.9394V44.223Z" fill="white"/>
<path d="M59.0421 44.6149V45.8855H58.6003V43.0435H59.2581C59.409 43.0398 59.5599 43.0529 59.7078 43.0823C59.8051 43.1053 59.8963 43.1483 59.9753 43.2084C60.0632 43.2793 60.1313 43.3707 60.1735 43.4742C60.2234 43.5868 60.2483 43.7084 60.2468 43.8311C60.2583 44.0233 60.1993 44.2132 60.0803 44.3666C59.9498 44.503 59.7715 44.5862 59.581 44.5994L60.5717 45.8914H60.0387L59.0738 44.6207L59.0421 44.6149ZM59.0718 44.256H59.159C59.3292 44.2724 59.5007 44.2421 59.6543 44.1687C59.6994 44.1326 59.7345 44.0859 59.7563 44.033C59.7782 43.9801 59.786 43.9227 59.7792 43.8661C59.7854 43.8047 59.7766 43.7428 59.7535 43.6854C59.7304 43.6281 59.6937 43.577 59.6464 43.5363C59.4973 43.4576 59.3277 43.4239 59.159 43.4393H59.0718V44.256Z" fill="white"/>
<path d="M64.8235 44.4694C64.8246 44.6659 64.7848 44.8606 64.7066 45.0417C64.6293 45.223 64.5147 45.3868 64.3698 45.5228C64.2234 45.6619 64.0513 45.7725 63.8626 45.8487C63.674 45.924 63.4719 45.9616 63.2682 45.9593C63.0645 45.9617 62.8624 45.9243 62.6736 45.8494C62.4848 45.7744 62.3131 45.6634 62.1686 45.5228C62.0236 45.3876 61.9089 45.2244 61.8318 45.0436C61.754 44.8591 61.7149 44.6612 61.7169 44.4616C61.7155 44.2621 61.7545 44.0643 61.8318 43.8796C61.9106 43.698 62.0254 43.5335 62.1696 43.3957C62.3138 43.2578 62.4845 43.1493 62.6719 43.0765C62.8607 43.0018 63.0626 42.9642 63.2662 42.9659C63.4699 42.9638 63.672 43.0014 63.8606 43.0765C64.0486 43.1491 64.2197 43.258 64.3639 43.3966C64.5076 43.5358 64.622 43.7012 64.7007 43.8835C64.7825 44.0684 64.8243 44.2679 64.8235 44.4694ZM64.3322 44.4694C64.3319 44.1879 64.2204 43.9175 64.0211 43.7147C63.924 43.6172 63.8082 43.5394 63.6803 43.4858C63.5514 43.4315 63.4125 43.4038 63.2722 43.4043C63.1327 43.4041 62.9946 43.4311 62.866 43.4839C62.7367 43.5379 62.6196 43.6164 62.5213 43.7147C62.4231 43.8138 62.3451 43.9304 62.2914 44.0581C62.2393 44.1892 62.2124 44.3287 62.2122 44.4694C62.2119 44.6095 62.2388 44.7484 62.2914 44.8787C62.3451 45.0058 62.4231 45.1217 62.5213 45.2201C62.6182 45.3197 62.7349 45.3989 62.864 45.4529C62.9934 45.5057 63.1321 45.5327 63.2722 45.5325C63.4083 45.5319 63.543 45.5048 63.6685 45.4529C63.8656 45.3709 64.0338 45.2339 64.1521 45.059C64.2705 44.8842 64.3338 44.6791 64.3342 44.4694H64.3322Z" fill="white"/>
<path d="M68.7049 44.483C68.7049 44.4597 68.691 44.3995 68.6791 44.2987C68.6673 44.1978 68.6593 44.1493 68.6514 44.093C68.6391 44.1589 68.6219 44.2237 68.5999 44.287C68.5766 44.3532 68.5495 44.4179 68.5187 44.481L67.7598 45.9961L67.001 44.4442C66.9693 44.3808 66.9415 44.3161 66.9178 44.2502C66.894 44.192 66.8742 44.1318 66.8564 44.0736C66.8557 44.1385 66.8511 44.2033 66.8425 44.2676C66.8334 44.3361 66.8209 44.4041 66.8048 44.4713L66.4918 45.872H66.0579L66.7454 42.9116L67.6013 44.7041C67.6132 44.7313 67.635 44.7778 67.6608 44.8457C67.6865 44.9136 67.7202 44.9932 67.7598 45.0882C67.7969 44.9823 67.8406 44.8786 67.8906 44.7778C67.9039 44.7529 67.9151 44.7269 67.9243 44.7002L68.7624 42.9116L69.4637 45.872H69.0259L68.7049 44.483Z" fill="white"/>
<path d="M70.8209 45.8855V43.0435H71.2925V45.8855H70.8209Z" fill="white"/>
<path d="M72.7784 45.3171L73.1549 45.1464C73.184 45.2627 73.2541 45.3651 73.353 45.4355C73.4604 45.5064 73.5882 45.5417 73.7176 45.5364C73.8401 45.5423 73.9603 45.5013 74.0524 45.4219C74.0939 45.3823 74.1264 45.3345 74.1476 45.2816C74.1687 45.2288 74.1782 45.1721 74.1753 45.1154C74.1753 44.9485 74.0346 44.7992 73.7512 44.6692L73.6601 44.6246C73.4223 44.5283 73.2057 44.388 73.0221 44.2114C72.9138 44.0843 72.8567 43.9229 72.8617 43.7574C72.8579 43.6521 72.8776 43.5472 72.9193 43.4501C72.9611 43.353 73.0239 43.2659 73.1034 43.1948C73.278 43.0478 73.5033 42.9715 73.7334 42.9814C73.9201 42.9743 74.1054 43.0158 74.2704 43.1017C74.4107 43.177 74.5173 43.3008 74.5695 43.449L74.201 43.643C74.1508 43.5645 74.083 43.4981 74.0029 43.449C73.9308 43.4078 73.8485 43.387 73.7651 43.3888C73.6555 43.3825 73.5475 43.4164 73.462 43.4839C73.4246 43.5162 73.395 43.5564 73.3755 43.6013C73.3559 43.6463 73.3469 43.695 73.3491 43.7438C73.3491 43.9146 73.5135 44.0736 73.8404 44.2211L73.8998 44.2482C74.1231 44.3361 74.3255 44.4682 74.4942 44.6362C74.604 44.7656 74.6618 44.9298 74.6567 45.0979C74.6625 45.217 74.6422 45.336 74.5971 45.4468C74.552 45.5575 74.4831 45.6575 74.3952 45.74C74.2015 45.9049 73.9501 45.9898 73.6938 45.9767C73.4786 45.9863 73.2661 45.9278 73.0875 45.8099C72.9235 45.6908 72.8128 45.5142 72.7784 45.3171Z" fill="white"/>
<path d="M75.9802 45.3171L76.3567 45.1464C76.3857 45.2627 76.4559 45.3651 76.5548 45.4355C76.6628 45.5066 76.7913 45.542 76.9213 45.5364C77.0433 45.542 77.1626 45.501 77.2542 45.4219C77.2957 45.3823 77.3282 45.3345 77.3493 45.2816C77.3705 45.2288 77.38 45.1721 77.377 45.1154C77.377 44.9485 77.2363 44.7992 76.953 44.6692L76.8619 44.6246C76.624 44.5283 76.4074 44.388 76.2239 44.2114C76.1155 44.0843 76.0585 43.9229 76.0634 43.7574C76.0597 43.6521 76.0794 43.5472 76.1211 43.4501C76.1628 43.353 76.2256 43.2659 76.3051 43.1948C76.4798 43.0478 76.7051 42.9715 76.9352 42.9814C77.1219 42.974 77.3073 43.0156 77.4721 43.1017C77.6129 43.1765 77.7198 43.3005 77.7713 43.449L77.4028 43.643C77.3526 43.5645 77.2848 43.4981 77.2046 43.449C77.1326 43.4078 77.0503 43.387 76.9669 43.3888C76.8573 43.3829 76.7494 43.4168 76.6638 43.4839C76.6263 43.5162 76.5968 43.5564 76.5772 43.6013C76.5577 43.6463 76.5487 43.695 76.5508 43.7438C76.5508 43.9146 76.7153 44.0736 77.0422 44.2211L77.1016 44.2482C77.3249 44.3361 77.5272 44.4682 77.696 44.6362C77.8066 44.7652 77.8645 44.9296 77.8585 45.0979C77.864 45.2145 77.8447 45.331 77.8017 45.4399C77.7587 45.5488 77.693 45.6477 77.6088 45.7303C77.4152 45.8952 77.1637 45.9801 76.9075 45.967C76.6917 45.9766 76.4785 45.9181 76.2992 45.8002C76.1336 45.6851 76.0194 45.5122 75.9802 45.3171Z" fill="white"/>
<path d="M82.3243 44.4694C82.3254 44.6659 82.2856 44.8606 82.2074 45.0417C82.1301 45.2235 82.0147 45.3874 81.8686 45.5228C81.7237 45.662 81.5529 45.7726 81.3654 45.8487C81.1766 45.9235 80.9746 45.9611 80.771 45.9593C80.5673 45.9617 80.3651 45.9243 80.1763 45.8494C79.9875 45.7744 79.8158 45.6634 79.6714 45.5228C79.5264 45.3876 79.4117 45.2244 79.3345 45.0436C79.2557 44.8594 79.2166 44.6613 79.2196 44.4616C79.2191 44.1647 79.3099 43.8745 79.4803 43.6288C79.6506 43.3831 79.8926 43.1934 80.1746 43.0843C80.5567 42.9374 80.9813 42.9374 81.3634 43.0843C81.551 43.1565 81.7215 43.2654 81.8646 43.4043C82.0096 43.543 82.1247 43.7085 82.2034 43.8913C82.2835 44.0739 82.3246 44.2706 82.3243 44.4694ZM81.833 44.4694C81.8332 44.3297 81.8056 44.1913 81.7517 44.062C81.6987 43.9324 81.6199 43.8143 81.5199 43.7147C81.4241 43.6167 81.3091 43.5386 81.1818 43.4849C81.0545 43.4313 80.9175 43.4032 80.7789 43.4024C80.6394 43.4021 80.5014 43.4292 80.3727 43.4819C80.2434 43.536 80.1263 43.6144 80.028 43.7128C79.9298 43.8119 79.8518 43.9284 79.7982 44.0562C79.746 44.1873 79.7192 44.3267 79.7189 44.4674C79.7186 44.6076 79.7455 44.7465 79.7982 44.8768C79.8518 45.0039 79.9298 45.1198 80.028 45.2182C80.125 45.3177 80.2416 45.3969 80.3708 45.451C80.4997 45.5057 80.6384 45.5348 80.7789 45.5363C80.9151 45.5357 81.0497 45.5087 81.1752 45.4568C81.4362 45.3427 81.6421 45.1342 81.7497 44.8748C81.8042 44.7463 81.8325 44.6085 81.833 44.4694Z" fill="white"/>
<path d="M88.3653 43.7341C88.24 43.628 88.0973 43.5434 87.9433 43.4839C87.7934 43.4277 87.6341 43.3994 87.4737 43.4005C87.3308 43.3949 87.1882 43.4186 87.0552 43.47C86.9221 43.5215 86.8015 43.5995 86.701 43.6992C86.5109 43.9115 86.4062 44.1842 86.4062 44.4665C86.4062 44.7488 86.5109 45.0214 86.701 45.2337C86.7946 45.331 86.908 45.408 87.034 45.4594C87.16 45.5109 87.2956 45.5358 87.4321 45.5325C87.6002 45.5334 87.7669 45.5032 87.9234 45.4432C88.0864 45.3784 88.2371 45.2872 88.3692 45.1736V45.6935C88.2435 45.7808 88.1035 45.8464 87.9551 45.8875C87.7975 45.9323 87.6339 45.9539 87.4697 45.9515C87.2599 45.9549 87.0514 45.9186 86.8555 45.8448C86.6696 45.7758 86.5005 45.6697 86.3589 45.533C86.2173 45.3964 86.1064 45.2324 86.0333 45.0514C85.9567 44.8665 85.9177 44.6688 85.9184 44.4694C85.9172 44.2699 85.9562 44.0721 86.0333 43.8874C86.1072 43.7056 86.2193 43.5411 86.3622 43.4043C86.5035 43.2669 86.6721 43.1593 86.8575 43.0881C87.0501 43.0149 87.2552 42.9781 87.4618 42.9795C87.6272 42.979 87.7917 43.0039 87.9492 43.0532C88.1101 43.1048 88.2623 43.1793 88.4009 43.2744L88.3653 43.7341Z" fill="white"/>
<path d="M92.8985 44.4694C92.9002 44.6658 92.8611 44.8605 92.7836 45.0417C92.707 45.2234 92.5922 45.3873 92.4467 45.5228C92.3003 45.6619 92.1282 45.7725 91.9395 45.8487C91.751 45.9242 91.5488 45.9618 91.3451 45.9593C91.1411 45.9619 90.9386 45.9247 90.7494 45.8497C90.5602 45.7748 90.3883 45.6636 90.2435 45.5228C90.0992 45.3871 89.9846 45.2241 89.9067 45.0436C89.8289 44.8591 89.7898 44.6612 89.7918 44.4616C89.79 44.2646 89.8291 44.0693 89.9067 43.8875C89.9844 43.7058 90.099 43.5414 90.2435 43.4043C90.3877 43.2658 90.5589 43.1569 90.7468 43.0843C90.9356 43.0096 91.1376 42.972 91.3412 42.9737C91.5448 42.9715 91.7469 43.0091 91.9356 43.0843C92.1237 43.1564 92.295 43.2653 92.4388 43.4043C92.5831 43.543 92.6977 43.7086 92.7756 43.8913C92.8564 44.0738 92.8982 44.2705 92.8985 44.4694ZM92.4091 44.4694C92.4094 44.3297 92.3818 44.1913 92.3279 44.062C92.2748 43.9324 92.196 43.8143 92.096 43.7147C92 43.6169 91.8848 43.539 91.7572 43.4858C91.6321 43.4329 91.4973 43.4052 91.361 43.4043C91.2209 43.4041 91.0822 43.4311 90.9528 43.4839C90.8236 43.5379 90.7064 43.6164 90.6081 43.7147C90.5099 43.8138 90.4319 43.9304 90.3783 44.0581C90.3252 44.189 90.2983 44.3286 90.299 44.4694C90.2973 44.6083 90.3238 44.7462 90.3768 44.875C90.4299 45.0039 90.5085 45.1212 90.6081 45.2201C90.705 45.32 90.8218 45.3993 90.9513 45.453C91.0809 45.5068 91.2203 45.5338 91.361 45.5325C91.4971 45.5319 91.6318 45.5049 91.7572 45.4529C92.0183 45.3388 92.2242 45.1303 92.3318 44.8709C92.3838 44.7432 92.41 44.6069 92.4091 44.4694Z" fill="white"/>
<path d="M96.7798 44.483C96.7798 44.4597 96.766 44.3995 96.7541 44.2987C96.7422 44.1978 96.7343 44.1493 96.7263 44.093C96.7147 44.1588 96.6982 44.2236 96.6768 44.287C96.6537 44.3535 96.6259 44.4183 96.5936 44.481L95.8367 46L95.0779 44.448C95.0471 44.3849 95.02 44.3202 94.9967 44.2541C94.9729 44.1959 94.9531 44.1357 94.9352 44.0775C94.9339 44.1424 94.9286 44.2072 94.9194 44.2715C94.9103 44.34 94.8978 44.408 94.8817 44.4752L94.5707 45.8758H94.1368L94.8223 42.9155L95.6782 44.708C95.6921 44.7352 95.7119 44.7817 95.7397 44.8496L95.8367 45.0921C95.8747 44.9865 95.9183 44.8828 95.9675 44.7817C95.9833 44.7507 95.9952 44.7235 96.0032 44.7041L96.8393 42.9155L97.5406 45.8758H97.1028L96.7798 44.483Z" fill="white"/>
<path d="M103.005 45.8855L102.676 45.1484H101.527L101.186 45.8855H100.691L102.096 42.9329L103.498 45.8855H103.005ZM101.701 44.7701H102.51L102.213 44.1202C102.195 44.0814 102.179 44.0329 102.159 43.9786C102.139 43.9243 102.121 43.8641 102.104 43.8001C102.088 43.8622 102.07 43.9184 102.054 43.9728C102.038 44.0271 102.018 44.0756 101.999 44.1202L101.701 44.7701Z" fill="white"/>
<path d="M106.95 45.8855V43.0435H108.569V43.4315H107.421V44.1435H108.569V44.5489H107.421V45.4665H108.569V45.8797L106.95 45.8855Z" fill="white"/>
<path d="M109.751 45.8855L110.692 44.3976L109.86 43.0396H110.356L110.774 43.7341C110.796 43.771 110.837 43.8467 110.899 43.9592L110.928 44.0174L110.998 43.8893C111.023 43.8428 111.053 43.7923 111.087 43.74L111.529 43.0396H112.012L111.164 44.386L112.083 45.8855H111.562L111.077 45.0785V45.0669C111.023 44.9699 110.974 44.8729 110.93 44.7914L110.857 44.9291C110.831 44.9757 110.801 45.0242 110.772 45.0746L110.265 45.8855H109.751Z" fill="white"/>
<path d="M115.636 43.7341C115.51 43.6279 115.367 43.5433 115.212 43.4839C115.063 43.4277 114.904 43.3994 114.744 43.4005C114.601 43.3949 114.458 43.4185 114.325 43.47C114.191 43.5214 114.07 43.5995 113.97 43.6992C113.869 43.8025 113.791 43.9243 113.74 44.0576C113.688 44.1909 113.665 44.3329 113.67 44.4752C113.665 44.6142 113.689 44.7527 113.739 44.8829C113.789 45.0131 113.864 45.1323 113.962 45.2337C114.056 45.3311 114.169 45.408 114.296 45.4595C114.422 45.511 114.558 45.5358 114.695 45.5325C114.862 45.5334 115.028 45.5032 115.184 45.4432C115.348 45.3784 115.499 45.2872 115.632 45.1736V45.6935C115.506 45.7804 115.366 45.846 115.218 45.8875C115.06 45.9322 114.896 45.9537 114.732 45.9515C114.522 45.955 114.313 45.9188 114.116 45.8448C113.93 45.7758 113.761 45.6697 113.62 45.533C113.478 45.3964 113.367 45.2324 113.294 45.0514C113.218 44.8664 113.18 44.6687 113.181 44.4694C113.179 44.27 113.217 44.0722 113.294 43.8874C113.37 43.7069 113.482 43.5432 113.623 43.4059C113.765 43.2686 113.933 43.1605 114.118 43.0881C114.312 43.0151 114.517 42.9783 114.724 42.9795C114.89 42.979 115.054 43.0039 115.212 43.0532C115.372 43.1044 115.524 43.179 115.662 43.2744L115.636 43.7341Z" fill="white"/>
<path d="M117.195 45.8855V43.0435H118.82V43.4315H117.673V44.1435H118.82V44.5489H117.673V45.4665H118.82V45.8797L117.195 45.8855Z" fill="white"/>
<path d="M120.329 45.8855V43.0435H120.801V45.4723H121.855V45.8855H120.329Z" fill="white"/>
<path d="M123.21 45.8855V43.0435H124.831V43.4315H123.682V44.1435H124.831V44.5489H123.682V45.4665H124.831V45.8797L123.21 45.8855ZM123.438 42.7661L123.823 42.2365H124.235L124.617 42.7661H124.367L124.025 42.4615L123.678 42.7661H123.438Z" fill="white"/>
<path d="M126.349 45.8855V42.9329L128.191 44.6692C128.243 44.7177 128.294 44.7701 128.346 44.8244C128.397 44.8787 128.451 44.9427 128.508 45.0184V43.0435H128.944V45.9961L127.062 44.2288C127.012 44.1784 126.963 44.1299 126.917 44.0775C126.872 44.0251 126.826 43.9689 126.783 43.9107V45.8855H126.349Z" fill="white"/>
<path d="M132.909 43.7341C132.783 43.6279 132.639 43.5433 132.485 43.4839C132.336 43.4277 132.177 43.3994 132.017 43.4005C131.874 43.3949 131.731 43.4185 131.598 43.47C131.464 43.5214 131.343 43.5995 131.242 43.6992C131.142 43.8025 131.064 43.9243 131.013 44.0576C130.961 44.1909 130.938 44.3329 130.943 44.4752C130.938 44.6142 130.962 44.7527 131.012 44.8829C131.062 45.0131 131.137 45.1323 131.235 45.2337C131.328 45.3311 131.442 45.408 131.569 45.4595C131.695 45.511 131.831 45.5358 131.968 45.5325C132.135 45.5334 132.301 45.5032 132.457 45.4432C132.621 45.3784 132.772 45.2872 132.905 45.1736V45.6935C132.779 45.7804 132.639 45.846 132.491 45.8875C132.128 45.9856 131.743 45.9707 131.389 45.8448C131.203 45.7758 131.034 45.6697 130.892 45.533C130.751 45.3964 130.64 45.2324 130.567 45.0514C130.49 44.8665 130.451 44.6688 130.452 44.4694C130.451 44.2699 130.49 44.0721 130.567 43.8874C130.644 43.7041 130.759 43.5388 130.906 43.4024C131.046 43.265 131.214 43.1574 131.399 43.0862C131.592 43.0132 131.798 42.9763 132.005 42.9776C132.171 42.9771 132.335 43.002 132.493 43.0513C132.653 43.1025 132.805 43.177 132.942 43.2724L132.909 43.7341Z" fill="white"/>
<path d="M134.472 45.8855V43.0435H134.945V45.8855H134.472Z" fill="white"/>
<path d="M138.514 45.8855L138.187 45.1484H137.036L136.701 45.8817H136.204L137.61 42.9291L139.013 45.8817L138.514 45.8855ZM137.212 44.7701H138.018L137.721 44.1202C137.705 44.0814 137.688 44.0329 137.67 43.9786C137.652 43.9243 137.632 43.8641 137.614 43.8001C137.598 43.8622 137.581 43.9184 137.563 43.9728C137.545 44.0271 137.527 44.0756 137.509 44.1202L137.212 44.7701Z" fill="white"/>
<path d="M24.9916 22.7866C26.6975 19.964 29.2177 13.9734 22.8122 10.4039C11.2137 3.93421 7.45321 0.00387989 7.44726 0C10.22 3.60661 13.4868 6.82221 17.1556 9.55617C24.2605 14.8483 23.5948 18.057 22.4397 20.1153C21.9437 19.4504 21.5225 18.7349 21.1836 17.9814C18.7169 12.4486 14.8434 12.5883 13.5596 13.0811C10.0725 14.4138 9.80698 17.9911 10.1577 19.7661C10.4786 14.4856 15.3308 13.1994 18.8892 19.4092C20.2444 21.772 24.6528 26.3115 29.8775 28.5269C29.8775 28.5269 18.4751 29.4852 11.6119 23.0951C11.6119 23.0951 12.6402 25.7935 17.0605 29.0138L13.1613 34.7076C13.1613 34.7076 12.244 36.8512 10.8848 36.2479C6.92222 34.4864 2.54158 34.0654 5.65419 24.8022C0.825778 20.0008 1.57867 14.2062 1.57867 14.2062C1.57867 14.2062 -2.27297 19.2811 2.05616 25.3532C-0.18072 33.5281 2.37713 36.0966 11.4614 39.7631C13.5893 40.6205 14.568 38.958 15.1327 37.4953C15.3566 36.9133 18.1225 33.3069 20.4822 30.1662C30.8027 32.5833 38.1276 28.9285 38.1276 28.9285C38.1276 28.9285 30.2619 27.2136 24.9797 22.7905" fill="white"/>
</svg>
